<?xml version="1.0" encoding="UTF-8" standalone="no"?>
<svg
   xmlns:dc="http://purl.org/dc/elements/1.1/"
   xmlns:cc="http://creativecommons.org/ns#"
   xmlns:rdf="http://www.w3.org/1999/02/22-rdf-syntax-ns#"
   xmlns:svg="http://www.w3.org/2000/svg"
   xmlns="http://www.w3.org/2000/svg"
   width="653.34442mm"
   height="846.66669mm"
   viewBox="0 0 653.34442 846.66669"
   version="1.1"
   id="svg8">
  <defs
     id="defs2" />
  <metadata
     id="metadata5">
    <rdf:RDF>
      <cc:Work
         rdf:about="">
        <dc:format>image/svg+xml</dc:format>
        <dc:type
           rdf:resource="http://purl.org/dc/dcmitype/StillImage" />
        <dc:title></dc:title>
      </cc:Work>
    </rdf:RDF>
  </metadata>
  <path
     id="path153"
     d="m 260.33899,325.98871 -17.06139,65.87234 89.37779,102.26326 117.51411,7.23164 25.31076,-84.97176 z"
     style="fill:#666666;fill-rule:evenodd;stroke:#000000;stroke-width:0.26458335px;stroke-linecap:butt;stroke-linejoin:miter;stroke-opacity:1" />
  <path
     id="path45"
     d="m 404.746,438.81325 c 37.7485,-1.97636 71.788,0.6327 105.4107,-18.24196 38.9268,-24.25308 75.3994,-53.17707 105.3566,-87.65931 19.7364,-23.62632 -42.3124,-6.91283 -55.4385,0.30046 -32.667,17.95168 -68.7656,31.0116 -103.9464,43.21368 -29.6194,4.9462 -74.3359,0.13385 -84.705,-32.80011 -4.3731,-20.98161 8.0147,-40.61754 5.7089,-8.63182 -2.2701,31.49068 48.0451,26.75517 71.2284,19.28945 44.3214,-17.0275 84.9081,-43.39355 130.4641,-57.27888 -0.41,-24.01437 -1.376,-62.23413 -27.8636,-73.02522 -43.9091,4.1199 -46.3537,-54.43575 -2.5792,-54.16379 32.1144,-0.79828 -8.175,-14.45686 -5.6473,-32.80723 -7.1954,-17.12182 -20.3809,-23.24647 -6.6328,-2.02014 -23.3824,-26.28235 3.4839,36.68464 -18.4107,-0.79744 -13.6122,-3.35026 -6.8446,33.5195 -14.3281,1.59119 -17.7632,-7.0718 -13.5398,37.78733 -15.6361,2.73005 -7.1275,-19.46541 -21.3989,36.58283 -13.0759,-5.99325 -6.7833,-17.4285 -30.9629,25.5967 -13.8833,-8.24866 -9.1768,-8.46482 -28.6256,14.3876 -11.9944,-9.39665 -9.4389,-13.39789 -35.0432,9.46082 -13.3477,-14.69127 -2.3255,-16.94896 -21.6166,-4.35727 -10.2351,-19.53408 -26.2433,-4.21359 18.4326,-7.46178 -14.87,-17.97508 32.5431,3.65947 -10.6935,-25.37229 16.6972,-11.46798 12.1249,-2.42695 -19.724,-25.26862 3.223,-10.12208 22.0501,14.21473 -15.0755,-21.47447 8.8842,-3.75993 23.5827,11.62144 -11.4596,-20.48709 -26.394,-6.05631 -24.1246,23.31113 -8.7011,-5.71617 5.652,-8.91794 -7.8878,-16.01505 -54.0969,10.42257 -31.0778,-10.76735 -33.6838,-11.73778 -117.0893,8.97184 -68.123,4.21925 15.3162,-1.43616 37.4478,11.51127 9.8815,3.08906 -37.6337,-2.6871 -73.63371,16.428946 -92.10381,47.283886 -7.1085,11.87494 -12.42727,45.170444 -10.46319,17.250794 11.7632,-50.28385 70.6029,-67.74026 56.6391,-62.70405 -43.7644,12.20661 -69.0389,38.26402 -112.7523,48.70713 -38.1988,9.12565 -74.9673,32.16289 -54.3754,70.54837 15.0223,36.95646 23.112,73.09348 39.7008,109.3731 13.3597,38.04336 54.903,27.85026 82.5856,45.41458 30.7495,4.18523 -4.838,-4.23694 7.8798,19.39808 18.9223,35.16577 36.2697,67.83001 66.4753,92.70839 21.9318,28.13632 57.4493,35.4218 92.0964,31.94306 z"
     style="fill:#a6a6a6;fill-opacity:1;stroke:none;stroke-width:0.35277778;stroke-opacity:1" />
  <rect
     y="627.90961"
     x="115.70622"
     height="124.74577"
     width="101.24294"
     id="rect151"
     style="opacity:0.94400072;fill:#a6a6a6;fill-opacity:1;stroke:#000000;stroke-width:0.26458335;stroke-linecap:round;stroke-linejoin:round;stroke-miterlimit:4;stroke-dasharray:none;stroke-dashoffset:0;stroke-opacity:1" />
  <path
     id="path55"
     d="m 259.6845,842.82873 c 49.8051,6.30689 34.2331,-56.31583 28.6504,-69.58296 16.4231,19.54355 8.36,50.4009 7.0334,65.52978 26.5255,7.84428 65.1323,-1.9371 55.7601,-39.65329 0.8212,-16.01129 -13.0783,-49.15861 1.22,-18.32899 11.9266,19.55612 -8.2465,61.56667 19.5461,47.20011 17.9311,-17.21009 -4.4927,-99.51427 -46.3772,-83.57942 -16.9745,-1.65412 -61.8326,-0.17832 -21.5645,-5.8185 -6.333,-35.42369 -12.5775,-71.60244 -16.6996,-107.42517 5.3648,-25.54994 10.2753,-49.18972 -4.9967,-73.44416 24.4293,20.25603 10.8145,55.1252 9.2979,74.52323 1.2084,31.5377 13.8655,61.58675 12.5903,93.59268 9.1232,26.64074 47.1607,0.22333 66.147,27.15382 12.8888,-33.77367 14.4577,-71.52455 8.8119,-106.83251 -3.2905,24.89819 -50.5064,45.09111 -55.7359,36.36751 35.6039,-1.52313 65.958,-40.63463 63.0664,-71.63475 -0.4937,-5.2928 13.2795,-24.9696 4.9809,8.35113 -10.4752,42.0602 4.105,88.82943 -15.2165,129.55296 -10.3801,21.87792 15.2636,51.96261 10.0986,72.19704 45.6226,-4.60666 84.0233,20.99273 122.2852,-1.68283 35.5816,-7.47712 9.2766,-61.04776 -2.2866,-66.42915 33.1008,23.86105 23.7003,50.6711 18.8467,67.7182 41.7863,11.59068 53.3818,-41.49706 33.8816,-70.79655 10.3054,1.79824 19.6898,47.31229 6.1319,59.05323 -17.7309,27.17509 35.6463,-10.12838 27.3531,-35.07332 -8.7302,-26.25993 -32.2606,-49.44552 -74.8684,-52.32419 -42.6077,-2.87867 -81.7456,10.45543 -37.8124,-6.66877 40.4938,-4.83383 9.4402,-48.65436 2.9113,-85.73987 -7.2303,-41.06992 0.8358,-80.32681 -21.1547,-118.4574 -19.0549,-34.39723 -21.1044,-0.84338 -57.2056,1.78705 34.4909,-15.17414 41.8047,-26.28379 2.7953,-16.38361 -28.35,2.57551 -60.4077,-5.83726 -85.3499,-24.62638 -30.9496,-23.31445 -65.1792,-37.41675 -78.547,-79.51261 -6.8576,19.54365 -27.0005,42.39058 -52.1007,64.54851 -28.291,24.97461 -56.3383,47.58042 -75.5787,80.54301 -30.1188,42.20691 -51.3676,76.95938 -69.0317,141.89046 -6.3242,32.84016 22.2259,-29.66349 33.7946,5.05466 10.5282,19.14835 -8.4409,57.51253 -20.2933,56.72198 31.062696,-21.76435 16.866408,-90.90176 -3.9495,-53.80791 -12.216308,21.7694 -68.9187,33.53238 -42.324,72.06198 22.6153,3.28748 -12.951,31.29233 41.003,38.22298 37.8522,3.37947 71.7153,46.98524 98.1339,15.00233 19.17456,-30.22453 -4.86751,-62.6899 -21.3404,-67.34966 26.24933,18.74515 30.5851,52.52378 26.1891,77.04711 16.6141,11.92901 32.7706,5.52472 22.3478,-15.82658 -14.1463,-28.97891 11.0545,-81.12953 -41.8464,-74.11423 -16.4343,-0.0175 -53.1108,13.86541 -56.7594,0.17658 33.4766,5.25915 65.8598,-10.00665 81.6951,-42.76606 17.7093,-36.63622 -6.2051,-69.54697 4.3618,-102.04728 -13.3142,-32.32571 -66.3606,-3.45728 -63.1874,-11.69421 31.0001,-19.87341 56.0007,-1.93813 69.9851,-1.42727 17.7617,-19.5965 30.7287,-20.70105 11.9864,-1.47762 -32.513,33.34771 -7.5087,68.54259 0.6114,101.5999 11.7784,47.9503 -23.1514,98.02965 3.3437,142.87478 15.452,46.13577 60.8113,16.00071 41.6571,-24.01271 -6.5042,-28.86842 22.9722,33.16711 2.6838,43.75801 0.017,8.19441 19.0414,6.46724 25.0256,5.98893 z"
     style="fill:#a6a6a6;fill-opacity:1;stroke:#000000;stroke-width:0.35277778;stroke-opacity:1" />
  <path
     style="fill:#040404;stroke-width:0.35277778"
     d="m 244.0569,845.37071 c -26.4224,-5.5432 -40.5337,5.64825 -53.5064,-18.04952 -36.765,4.96899 -82.214,4.44274 -115.8815,-17.06019 -28.1298,-10.59337 -64.1542,-10.03062 -57.3952,-45.41905 -33.8468,-16.1407 -0.3267,-57.31309 23.0777,-64.43853 7.2336,-78.58082 55.179,-145.04195 99.8927,-207.10502 27.0835,-29.73882 60.3841,-47.0833 83.4739,-79.82528 16.9261,-24.00158 24.3901,-57.37651 19.7219,-86.38872 -4.2014,-26.11098 -27.6071,-37.4395 -54.9901,-43.43414 -50.611,-11.07965 -50.5211,-77.38278 -71.9573,-117.05512 -18.1852,-36.16397 -26.4345,-72.89456 10.8316,-90.46375 33.2375,-8.99195 68.2833,-13.89945 97.6086,-36.00068 57.2496,-30.34865 127.5109,-51.65176 190.6989,-27.05836 32.1642,17.57355 62.5594,39.97799 90.0072,64.86105 27.8692,25.26503 32.3498,62.66786 60.6725,85.57272 31.5677,15.75747 64.6888,32.17642 79.4874,67.1098 15.2651,36.03457 6.4906,74.30973 -18.6963,100.15076 -27.5655,29.22081 -61.3388,58.71951 -95.4245,84.36171 -25.3885,19.0994 -59.1611,17.06041 -71.3858,51.95742 -19.869,29.13806 18.7601,35.35424 20.6037,102.4709 -0.8898,35.95233 6.3071,68.94481 19.7559,108.37584 15.0782,44.20847 31.2863,34.75706 59.5669,49.6572 30.6497,16.14834 58.6285,60.5107 15.4321,92.82321 -34.1249,11.17422 -52.7234,1.62783 -87.8611,10.99554 -32.153,8.57198 -74.5474,-15.62187 -105.0664,-3.56197 -13.3439,9.55831 -20.6408,7.09286 -32.7757,3.71443 -19.6774,16.55525 -46.3479,13.88009 -61.8042,11.16649 -9.4872,4.60502 -33.8997,4.78038 -44.0865,2.64326 z m 15.6276,-2.542 c 49.8051,6.3069 34.2331,-56.31581 28.6504,-69.58295 16.4231,19.54357 8.36,50.40091 7.0334,65.52978 26.5255,7.8443 65.1323,-1.9371 55.7601,-39.65329 0.8212,-16.01128 -13.0783,-49.15859 1.22,-18.32899 11.9266,19.55613 -8.2465,61.56666 19.5461,47.20012 17.9311,-17.21009 -1.2602,-94.66554 -45.8385,-83.04066 -16.9745,-1.65414 -62.3713,-0.7171 -22.1032,-6.35726 -6.333,-35.42369 -12.5775,-71.60243 -16.6996,-107.42518 5.3648,-25.54992 10.2753,-49.18972 -4.9967,-73.44415 24.4293,20.25602 10.8145,55.1252 9.2979,74.52324 1.2084,31.53769 13.8655,61.58673 12.5903,93.59267 9.1232,26.64074 47.1607,0.22332 66.147,27.15381 12.8888,-33.77365 14.4577,-71.52455 8.8119,-106.83251 -3.2905,24.8982 -50.5064,45.09111 -55.7359,36.36751 35.6039,-1.52312 65.958,-40.63462 63.0664,-71.63474 -0.4937,-5.29279 13.2795,-24.9696 4.9809,8.35113 -10.4752,42.06021 4.105,88.82943 -15.2165,129.55295 -10.3801,21.87792 15.2636,51.96261 10.0986,72.19704 45.6226,-4.60665 84.0233,20.99274 122.2852,-1.68281 35.5816,-7.47713 9.2766,-61.04778 -2.2866,-66.42917 33.1008,23.86105 23.7003,50.67111 18.8467,67.71822 41.7863,11.59068 53.3818,-41.49707 33.8816,-70.79655 10.3054,1.79824 19.6898,47.31227 6.1319,59.05323 -17.7309,27.17509 35.6464,-10.12839 27.3532,-35.07333 -8.7303,-26.25994 -32.2607,-49.44552 -74.8685,-52.32419 -42.6077,-2.87867 -81.7456,10.45543 -37.8124,-6.66878 40.4938,-4.83381 9.4402,-48.65434 2.9113,-85.73985 -7.2303,-41.06992 0.8358,-80.32683 -21.1547,-118.45742 -19.0549,-34.39722 -21.1044,-0.84337 -57.2056,1.78707 34.4909,-15.17416 41.8047,-26.2838 2.7953,-16.38362 -28.35,2.5755 -60.4077,-5.83727 -85.3499,-24.62638 -30.9496,-23.31446 -65.1792,-37.41675 -78.547,-79.5126 -6.8576,19.54365 -27.0005,42.39057 -52.1007,64.5485 -28.291,24.97461 -56.3383,47.58043 -75.5787,80.54302 -30.1188,42.20691 -51.3676,76.95936 -69.0317,141.89045 -6.3242,32.84016 22.2259,-29.66349 33.7946,5.05464 10.5282,19.14836 -8.4409,57.51255 -20.2933,56.722 22.114,-9.6197 21.104288,-83.74947 -0.114344,-52.52952 -12.755799,18.76818 -76.721221,41.746 -41.045615,72.06198 17.41459,14.79835 -11.0334225,24.2612 35.889459,36.94458 37.8522,3.37948 71.7153,46.98524 98.1339,15.00234 19.3134,-25.88215 -15.9453,-56.45836 -21.3404,-67.34967 37.7548,22.58032 25.94159,45.11504 33.85941,68.73763 6.50007,19.39273 25.10029,13.83419 14.67749,-7.51708 -14.1463,-28.97893 11.0545,-81.12953 -41.8464,-74.11426 -16.4343,-0.0174 -53.1108,13.86543 -56.7594,0.1766 33.4766,5.25914 65.8598,-10.00664 81.6951,-42.76605 17.7093,-36.63622 -6.2051,-69.54699 4.3618,-102.04728 -13.3142,-32.32571 -66.3606,-3.4573 -63.1874,-11.69423 31.0001,-19.87339 56.0007,-1.93811 69.9851,-1.42726 17.7617,-19.5965 30.7287,-20.70106 11.9864,-1.47763 -32.513,33.34773 -7.5087,68.5426 0.6114,101.5999 11.7784,47.95032 -23.1514,98.02966 3.3437,142.87478 15.452,46.13577 60.8113,16.00071 41.6571,-24.01271 -6.5042,-28.86842 22.9722,33.16711 2.6838,43.75802 0.017,8.19442 19.0414,6.46723 25.0256,5.98891 z m -80.852,-95.68662 c 2.9483,-20.09321 9.0121,-89.01306 -3.1084,-86.5082 2.2398,39.5754 -38.5372,58.05277 -27.8702,65.04197 12.4078,-1.14308 25.712,7.45412 30.9786,21.46623 z M 410.8497,485.69791 c 27.4089,0.12895 54.0716,-24.99268 49.7417,-43.26668 -39.5403,8.64508 -69.8636,-7.69151 -76.7303,39.45406 -2.2263,9.78893 21.5067,2.40072 26.9886,3.81262 z m -36.0337,-4.09436 c 16.4472,-20.93011 17.7703,-36.58306 -16.4879,-38.84749 -38.7151,-2.55902 -16.5544,53.40123 16.4879,38.84749 z m -40.6954,-11.78424 c 4.728,-23.84947 0,-39.56021 -22.1614,-55.27817 -25.5335,-18.10692 -40.5472,-36.30999 -58.6103,-64.55988 -10.5789,20.26727 4.2777,64.50384 27.7046,81.64246 16.6824,12.2045 35.346,27.60189 53.0671,38.19559 z m 70.6254,-31.00605 c 37.7485,-1.97635 71.788,0.63269 105.4107,-18.24197 38.9268,-24.25308 75.3994,-53.17708 105.3566,-87.65931 19.7365,-23.62632 -42.3124,-6.91283 -55.4385,0.30045 -32.667,17.95169 -68.7656,31.01162 -103.9464,43.21369 -29.6194,4.94619 -74.3359,0.13385 -84.705,-32.80011 -4.3731,-20.9816 8.0147,-40.61752 5.7089,-8.63181 -2.2701,31.49068 48.0451,26.75516 71.2284,19.28945 44.3214,-17.02751 84.9081,-43.39356 130.4641,-57.27889 -0.41,-24.01437 -1.376,-62.23413 -27.8636,-73.02522 -43.9091,4.1199 -46.3537,-54.43575 -2.5792,-54.16379 32.1144,-0.79827 -8.175,-14.45686 -5.6473,-32.80723 -7.1954,-17.12181 -20.3809,-23.24647 -6.6328,-2.02014 -23.3824,-26.28234 3.4839,36.68464 -18.4107,-0.79744 -13.6122,-3.35026 -6.8446,33.5195 -14.3281,1.59119 -17.7632,-7.0718 -13.5398,37.78733 -15.6361,2.73005 -7.1275,-19.4654 -21.3989,36.58283 -13.0759,-5.99325 -6.7833,-17.4285 -30.9629,25.5967 -13.8833,-8.24866 -9.1768,-8.46482 -28.6256,14.3876 -11.9944,-9.39665 -9.4389,-13.39789 -35.0432,9.46082 -13.3477,-14.69127 -2.3255,-16.94896 -21.6166,-4.35727 -10.2351,-19.53408 -26.2433,-4.21358 18.4326,-7.46177 -14.87,-17.97508 32.5431,3.65948 -10.6935,-25.37228 16.6972,-11.46798 12.1249,-2.42694 -19.724,-25.26861 3.223,-10.12208 22.0501,14.21474 -15.0755,-21.47446 8.8842,-3.75993 23.5827,11.62145 -11.4596,-20.48708 -26.394,-6.05631 -24.1246,23.31113 -8.7011,-5.71616 5.652,-8.91793 -7.8878,-16.01505 -54.0969,10.42256 -31.0778,-10.76735 -33.6838,-11.73778 -117.0893,8.97184 -68.123,4.21925 15.3162,-1.43616 37.4478,11.51127 9.8815,3.08906 -36.72975,0.476742 -59.91874,14.160053 -81.74704,34.970733 -19.1617,15.47734 -22.33206,63.359297 -20.81996,29.563947 11.7632,-50.28386 70.6029,-67.74026 56.6391,-62.70405 -43.7644,12.2066 -69.0389,38.26401 -112.7523,48.70712 -38.1988,9.12566 -74.9673,32.16289 -54.3754,70.54837 15.0223,36.95646 23.112,73.09348 39.7008,109.3731 13.3597,38.04338 54.903,27.85028 82.5856,45.41457 30.7495,4.18524 -4.838,-4.23691 7.8798,19.39809 18.9223,35.16578 36.2697,67.83001 66.4753,92.70839 21.9318,28.13632 57.4493,35.4218 92.0964,31.94307 z m -55.7087,-63.21119 c -36.6332,-23.97333 -36.912,-77.2547 -21.6827,-113.99414 1.4854,-14.71456 43.0167,-49.14485 15.0236,-18.5243 -19.3969,31.10115 -27.8631,75.53969 -9.746,109.03889 0.5011,5.21077 25.2323,28.23724 16.4051,23.47955 z m -9.2042,-47.68221 c -21.6025,-38.70699 46.5758,-74.93631 57.3675,-61.18044 -37.8459,-4.68104 -56.6156,35.5712 -57.3675,61.18044 z m -159.19,-98.32753 c -32.457,-26.64115 -61.189,-72.34115 -41.2914,-114.55147 9.6677,-16.37985 48.491,-37.3991 16.4397,-9.5067 -34.086,26.57894 -12.2152,78.58817 12.2945,104.81741 -0.6142,1.85714 22.3483,23.48363 12.5572,19.24076 z m 170.5111,-50.33034 c 8.2747,-30.48331 -8.6833,-27.70266 -23.8977,-5.15895 12.9801,-25.97791 2.0793,-38.08841 -16.6339,-18.39785 27.6471,-33.36795 -20.7601,-14.17207 -14.157,-19.61401 45.423,-13.04847 -3.9358,-21.51363 -1.1589,-22.06376 24.1518,1.54101 9.7461,-14.2446 -1.1382,-16.5493 27.7534,0.14181 9.3209,-11.73328 -1.5784,-24.78974 44.6995,21.37399 9.1038,-18.9923 16.9266,-13.07972 26.706,17.59329 17.9653,-11.7901 16.0336,-12.58828 9.1252,18.68324 26.1603,9.33385 19.716,-2.98369 9.6391,10.82817 17.9048,18.04587 18.7027,0.31993 1.9689,23.15292 14.9198,13.21213 22.9492,1.49514 -8.3362,25.76379 7.3479,24.57947 15.2772,13.18242 -2.9624,10.93924 -6.1854,30.28464 10.6494,22.34418 -6.6718,13.10132 -3.8717,17.11394 7.8724,16.82072 4.7447,-0.11846 -4.7412,3.18894 -8.5003,11.45808 1.2171,11.89036 29.6679,17.29765 1.5133,14.67728 -10.7176,16.44391 33.1898,30.06288 -3.7713,19.37174 -27.3172,-3.89947 -5.5586,49.61834 -22.997,14.50102 -14.7574,0.0282 -6.5563,39.22402 -15.2992,6.86407 -7.527,-18.52554 -18.1073,22.40763 -20.5085,14.19072 z m -76.4767,-65.86751 c -32.3408,-35.10205 0.4099,-86.69272 42.9547,-89.55739 20.6157,-4.68667 51.586,10.64012 13.8667,4.35565 -39.3013,-6.54803 -85.8882,41.8249 -57.3022,82.05683 l 2.3047,4.86444 z m 361.5918,195.30076 c 24.0868,-26.1076 15.472,-71.82014 -5.2564,-98.80853 -13.7549,-16.23913 -30.8777,-31.80487 -31.3336,-1.36501 -25.3063,21.69465 -18.4429,80.31519 12.7759,86.07236 12.1625,2.24292 16.8545,21.64467 23.8141,14.10118 z m -67.7662,-95.73441 c 40.4165,-2.32726 30.4814,-38.27997 -2.1454,-40.41919 -51.0678,-3.34833 -40.9394,42.90009 2.1454,40.41919 z"
     id="path3766" />
  <path
     id="path35"
     d="m 363.7951,147.68533 c 29.3881,-0.10259 42.5329,-29.9201 39.4063,-46.87539 -46.9076,21.07616 -62.6509,-31.58166 -48.0696,-36.32935 -53.413,9.088 -42.2272,83.3824 8.6633,83.20474 z"
     style="fill:#ffffff;stroke:#000000;stroke-width:0.31933081;stroke-opacity:1" />
  <path
     id="path31"
     d="m 635.9416,307.98028 c 24.0869,-26.1076 15.472,-71.82014 -5.2564,-98.80853 -13.7549,-16.23913 -30.8777,-31.80487 -31.3336,-1.36501 -25.3062,21.69465 -18.4428,80.31519 12.7759,86.07236 12.1625,2.24293 16.8545,21.64467 23.8141,14.10118 z"
     style="fill:#a6a6a6;fill-opacity:1;stroke:#000000;stroke-width:0.35277778;stroke-opacity:1" />
  <path
     id="path3766-8"
     d="m 499.8014,118.63543 c 30.9588,-10.85044 22.8789,-17.93789 6.8446,-35.70258 -52.4396,19.45037 -58.0659,-23.36117 -54.3307,-37.61079 -43.8644,23.54103 -5.3475,79.24911 47.4861,73.31337 z"
     style="fill:#ffffff;stroke:#000000;stroke-width:0.35277778;stroke-opacity:1" />
</svg>
