<?xml version="1.0" encoding="utf-8"?>
<!-- Generator: Adobe Illustrator 26.1.0, SVG Export Plug-In . SVG Version: 6.00 Build 0)  -->
<svg version="1.1" id="Layer_1" xmlns="http://www.w3.org/2000/svg" xmlns:xlink="http://www.w3.org/1999/xlink" x="0px" y="0px"
	 viewBox="0 0 152.2 200" style="enable-background:new 0 0 152.2 200;" xml:space="preserve">
<style type="text/css">
	.st0{fill:#808080;}
	.st1{fill:#B5121B;}
	.st2{fill:#FFFFFF;}
</style>
<g id="Layer_2_00000023972538932365980330000018339024517045397664_">
	<g id="Layer_1-2">
		<path class="st0" d="M152.2,65.8v14.6c0,27.2-12.9,87.4-76.1,119.6C12.9,168,0,107.7,0,80.4V65.8H152.2z"/>
		<path class="st1" d="M76.1,0c0,0,49.7-0.8,76.1,10.1v55.7H0V10.1C26.5-0.7,76.1,0,76.1,0"/>
		<path class="st2" d="M16.5,16.3c-0.1,0-0.2,0-0.4,0.1c0.1-0.2,0.3-0.3,0.4-0.5c0.3-0.4,0.8-0.6,1.3-0.5c0.6,0,1.2,0.3,1.7,0.7
			c-0.1,0.1-0.2,0.1-0.3,0.2c-0.2,0.1-0.4,0.3-0.5,0.5c-0.4-0.4-1-0.6-1.6-0.5C17,16.3,16.8,16.3,16.5,16.3z M18.1,21.1
			c-0.3-0.1-0.7-0.2-1-0.1c-0.7,0-1.3,0.3-1.6,0.9c-0.2,0.3-0.4,0.6-0.4,0.9c0.1-0.1,0.2-0.1,0.3-0.2c0.4-0.3,1-0.5,1.5-0.5
			c0.3,0,0.5,0.1,0.7,0.1C17.7,21.7,17.9,21.4,18.1,21.1L18.1,21.1z M18.6,18.4c0,0-0.1,0.1-0.1,0.1l0,0v0.1c0,0.1-0.1,0.1-0.1,0.3
			c0,0.3,0.2,0.6,0.4,0.7c0.4,0.2,1.3,0.9,1.9,1.3c0.2-0.7,0.6-1.3,1.1-1.8l-1-2.1l0,0V17l-0.1-0.1c-0.1-0.1-0.2-0.1-0.4-0.1
			c-0.2,0-0.4,0.1-0.5,0.2C19.5,17.4,19,17.9,18.6,18.4z M22.4,54.1c-0.2,0.4-0.3,0.9-0.3,1.4v0.1c0-0.1,0.1-0.2,0.1-0.2
			c0.3-0.6,0.8-1.1,1.5-1.4c-0.1-0.3-0.1-0.7-0.2-1C23,53.3,22.6,53.7,22.4,54.1z M24.4,29.2c1,0.9,1.6,1.1,1.9,1.1
			c0.2,0,0.4-0.1,0.5-0.3c0.1-0.1,0.2-0.3,0.4-0.5c0.1-0.2,0.2-0.5,0.1-0.7c0-0.4-0.1-0.8-0.3-1.2l0,0c-0.1-0.2-2.3-5.5-2.9-7.5
			c0-0.3-0.1-0.5-0.1-0.8l-0.1-0.1h-0.1c-0.2,0-0.4,0.1-0.6,0.2c-1.2,0.7-1.9,2.1-1.9,3.5C21.5,25.2,22.6,27.5,24.4,29.2z
			 M20.5,22.3V22c0-0.1-0.8-0.5-0.9-0.5c-0.3-0.1-0.7,0-1,0.2c-0.4,0.5-0.6,1-0.7,1.6c0,0.2,0.1,0.4,0.2,0.6
			c0.2,0.2,0.5,0.4,0.7,0.5c0.7,0.2,1.3,0.4,1.9,0.6c-0.2-0.7-0.4-1.5-0.4-2.3L20.5,22.3z M24,13.7h0.2c0.3,0,0.6,0.1,0.9,0.2
			c0-0.7-0.3-1.4-0.9-1.9c-0.4-0.3-0.9-0.5-1.4-0.5h-0.3c0.1,0.1,0.2,0.1,0.3,0.2C23.4,12.3,23.8,12.9,24,13.7z M22.1,16.6
			c0.1,0.3,0.2,0.7,0.3,1c0.1,0.3,0.2,0.7,0.3,1c0.1,0,0.1-0.1,0.1-0.1l0,0c0.3-0.2,0.6-0.3,1-0.3c0.2,0,0.3,0,0.4,0.1
			c0.1-0.3,0.2-0.7,0.4-1c0.1-0.3,0.2-0.7,0.3-1.1v-0.5c0-0.2,0-0.5-0.1-0.7c-0.1-0.2-0.3-0.3-0.6-0.3c-0.2,0-0.3,0-0.4,0.1
			c-0.5,0.1-1.3,0.3-1.6,0.9C22,15.9,22,16.2,22.1,16.6L22.1,16.6z M31.1,17.6c0.4-0.5,0.6-1.1,0.7-1.8c0-0.5-0.2-1-0.5-1.4
			c-0.1-0.2-0.3-0.3-0.4-0.5c0,0.1,0.1,0.3,0.1,0.4c0.1,0.2,0.1,0.5,0.1,0.7c0,0.6-0.2,1.1-0.5,1.6L31.1,17.6z M48.2,14L48.2,14
			c0-0.3,0.2-0.6,0.4-0.9c0.2-0.3,0.6-0.7,0.4-1.1c-0.1-0.2-0.4-0.4-0.4-0.7c0-0.2,0.1-0.3,0.2-0.4c0.2-0.1,0.4-0.3,0.6-0.3
			c0.7-0.2,2.7-1,2.7-1c0.2-0.2,0.3-0.4,0.5-0.6c0.4-0.4,1-0.6,1.6-0.6c2.2-0.5,8.1-0.8,8.6-0.9c0.3,0,0.5,0.1,0.7,0.3
			c0.4,0.3,0.7,0.7,1,1.2c0.2,0.1,0.3,0.4,0.4,0.5c0,0.1,0.1,0.2,0.2,0.2l0.1,0.1l0.1-0.1c0.1-0.1,0.1-0.1,0.2-0.1
			c0.2,0,0.3-0.1,0.4-0.1c0.3,0,0.5,0.1,0.7,0.2c0.3,0.3,0.5,0.6,0.6,1c0.1,0.3,0.1,0.5,0.1,0.8c-0.1,1.4-0.7,2.7-1.6,3.7l-0.1,0.1
			l0.1,0.1c1.5,2.2,2.4,4.8,2.6,7.5c-0.2-0.3-0.5-0.7-0.7-1.1c-0.1-0.1-0.1-0.1-0.2-0.2c-0.1-0.1-0.2-0.2-0.4-0.3h-0.2
			c-0.1,0-0.2,0-0.3,0.1c-0.1,0.1-0.1,0.2-0.2,0.3c0,0.2,0,0.3,0.1,0.5c0.8,2.5,1.1,5.1,1.1,7.7V30l-1-1.6c-0.1-0.3-0.3-0.4-0.6-0.5
			c-0.1,0-0.2,0.1-0.3,0.1c-0.1,0.1-0.1,0.2-0.1,0.3c0,0.1,0,0.2,0.1,0.2c0.5,1.2,0.7,2.5,0.7,3.9c0,1.3-0.2,2.7-0.7,3.9
			c-0.1,0.4-0.3,0.8-0.4,1.2c0,0.1-0.1,0.2-0.1,0.2c-0.1-0.2-0.2-0.4-0.3-0.5c-0.2-0.4-0.4-0.8-0.5-1.2l-0.2-0.5
			c-0.1-0.1-0.2-0.1-0.3-0.2c-0.1,0-0.2,0.1-0.3,0.2c-0.1,0.1-0.1,0.2-0.1,0.4v1c0,2.1-0.7,4.2-2.1,5.8C61,43.2,60.5,43.6,60,44
			c-0.1,0.1-0.3,0.2-0.4,0.3v-3.9c0-0.2-0.1-0.3-0.2-0.5c-0.1-0.1-0.2-0.2-0.3-0.2c-0.1,0-0.2,0-0.2,0.1c-0.1,0.1-0.2,0.2-0.2,0.2
			c-0.5,1.3-1.2,2.4-2.2,3.4c-0.4,0.4-1,0.7-1.6,0.7c-0.2,0-0.4,0-0.4-0.1s0.2-0.4,0.4-0.7c0.3-0.6,0.4-1.2,0.4-1.8
			c0-0.4-0.1-0.8-0.4-1.2c-0.5-0.4-1.1-0.5-1.7-0.4c-0.2,0-0.5,0-0.7,0.1c-2.2,0.5-4.3,1.3-6.3,2.5c-1.7,0.9-3.2,1.8-3.6,2.1
			C42.2,43.8,42,43,42,42.1c0-0.9,0.2-1.8,0.7-2.5c0.1-0.3,0.3-0.5,0.4-0.7c0.1-0.1,0.1-0.2,0.2-0.2l0.1-0.1l0.2-0.2
			c0.1-0.1,0.1-0.2,0.2-0.4c0-0.1-0.1-0.2-0.2-0.3c-0.1-0.1-0.2-0.1-0.4-0.1c-1.1,0.1-2.1,0.6-2.9,1.5c0-2.2,0.8-4.3,2.2-6
			c0.7-0.8,1.6-1.5,2.6-1.9c0.2,0,0.3-0.2,0.4-0.3c0.1-0.1,0.1-0.2,0.2-0.3v-0.1c0-0.1-0.1-0.1-0.2-0.2c-0.1-0.1-0.3-0.2-0.4-0.1
			l-1.3-0.3c-0.3-0.1-0.7-0.1-0.9-0.2s-0.2-0.1-0.2-0.1c1.4-1.8,3.6-2.8,5.9-2.8H50c0.2,0,0.4-0.1,0.5-0.1c0.1-0.1,0.2-0.2,0.2-0.4
			c0-0.1-0.1-0.3-0.2-0.3c0,0-0.1-0.1-0.2-0.1h-0.1c-0.3-0.2-0.7-0.4-1-0.6c-0.2-0.1-0.3-0.2-0.4-0.3c0,0-0.1-0.1-0.1-0.1v-0.1
			c0.2,0,0.5,0,0.7,0.1c0.4,0,0.8,0,1.1,0.1c0.6,0.2,1.2,0.3,1.8,0.4c0.8,0,1.6-0.3,2.2-0.9c0.4-0.4,0.7-0.8,0.9-1.3
			c0.1-0.2,0.2-0.4,0.2-0.7c0.1-0.4-0.2-0.8-0.6-0.9c-0.3-0.1-0.7-0.2-1-0.1c-0.5,0-1,0.2-1.4,0.5c-0.2,0.2-0.4,0.3-0.7,0.4
			c-0.1,0-0.2,0-0.2-0.1h-0.1l-0.9-0.9c-0.3-0.1-0.5-0.2-0.7-0.3C50,21,50,21,50,21l0.1-0.1c0,0,0.1-0.1,0.2-0.1
			c0.3-0.3,0.8-0.4,1.2-0.4c0.4,0,1,0.1,2.1,0.1H54c0.6,0,1.2-0.2,1.6-0.7c0.3-0.4,0.4-0.8,0.4-1.2c0-0.3,0-0.6-0.2-0.9
			c-0.4-1.2-1-2.3-1.6-3.4c-0.2-0.4-0.6-0.7-1.1-0.7c-0.6,0.1-1.2,0.3-1.6,0.7c-0.3,0.2-0.5,0.4-0.7,0.7c-0.3,0.3-0.7,0.5-1.1,0.5
			c-0.4,0-0.7-0.2-1-0.5C48.4,14.7,48.2,14.3,48.2,14z M53.9,10.8c0.3,0.1,0.6,0.3,0.8,0.5l0.1,0.1l0.1-0.1c0,0,0.3-0.3,0.7-0.6
			c0.2-0.1,0.7-0.5,0.7-0.8c-0.1-0.4-1.7,0.1-1.9,0.1c-0.2,0-0.4,0.1-0.5,0.2c-0.1,0-0.1,0-0.2,0.1l-0.1,0.1
			C53.2,10.8,53.8,10.9,53.9,10.8L53.9,10.8z M25,19.7c0.7,2.2,1.5,4.4,2.5,6.5c0.2,0.5,0.4,0.9,0.4,0.9c0.2,0.5,0.4,1.1,0.4,1.6
			c0,0.4-0.1,0.9-0.3,1.2c-0.3,0.5-0.6,0.9-0.6,0.9l0,0V31c0,0-0.1,0.1-0.1,0.1c-0.1,0.2-0.1,0.4-0.1,0.6c0,0.4,0.1,0.7,0.3,1
			c0,0,0.3,0.5,0.6,1c0.3,0.5,0.6,1,0.9,1.5c0.1,0.1,0.1,0.2,0.2,0.3l0.1,0.2v-0.1c0-0.2,0.1-0.4,0.1-0.5v-0.2c0-0.4,0-0.7,0.1-1.1
			c0-0.2,0.2-0.4,0.4-0.5c0,0,0,0,0,0c0.2,0,0.4,0.2,0.4,0.4c0.1,0.2,0.1,0.7,0.3,1.2l0,0c0,0.1,0,0.1,0.1,0.2
			c0,0.1,0.1,0.3,0.1,0.4c0.2,0.4,0.4,0.8,0.7,1.2c0.6,1,1.5,1.9,2.6,2.4v-2c0-0.1,0.2-0.2,0.2-0.2l0,0c0.1,0,0.2,0.1,0.2,0.1
			s0.2,0.1,0.2,0.2s0.1,0.2,0.2,0.2l0,0l0.1,0.1c0.1,0.1,0.1,0.1,0.2,0.2c0.1,0.2,0.3,0.4,0.4,0.7c0.5,0.8,1,1.5,1.6,2.2
			c1.3,1.5,2.8,2.8,4.2,3.2c-0.1-0.4-0.1-0.8-0.2-1.2c0-0.8,0.1-1.6,0.4-2.4c-0.1,0.1-0.3,0.2-0.4,0.3l-2,1.8l0.1-2.7
			c0-2.5,0.9-4.9,2.5-6.8c0.5-0.5,1-1,1.6-1.4c-0.2-0.1-0.4-0.1-0.6-0.1S42.5,31,42.4,31l-0.6-0.1c-5-0.8-9.7-3.2-13.3-6.9
			c-0.7-0.6-1.2-1.6-1.2-2.5c0-0.6,0.2-1.2,0.6-1.6c0.5-0.6,1.2-1.1,2-1.3H30l0.1-0.1c0.1-0.1,0.1-0.1,0.1-0.2s-0.1-0.5-0.7-1
			c-0.7-0.6-1.3-1.1-1.7-1.4c-0.2-0.1-0.3-0.3-0.5-0.4l0,0c-0.1,0-0.2,0-0.4,0.3c-0.4,0.5-1.9,1.7-1.9,3.3
			C24.9,19.2,24.9,19.4,25,19.7z M30.3,47.1L30.3,47.1V47c0-0.3-0.2-0.5-0.4-0.6c-0.3-0.2-0.6-0.4-0.8-0.7c-0.2-0.2-0.3-0.3-0.4-0.3
			h-0.1c-0.2,0-0.3,0.1-0.4,0.2c-0.1,0-0.1,0.1-0.2,0.1c-0.1,0.1-0.2,0.2-0.4,0.2c-0.4,0.2-0.7,0.4-1,0.7l0.2,0.2
			c0.6,0.7,1.3,1.3,2.1,1.7c0.4,0.2,0.8,0.3,1.2,0.4c0-0.2-0.1-0.4-0.1-0.5C30.1,47.9,30.2,47.5,30.3,47.1L30.3,47.1z M24.2,46.8
			c-0.6,0-1.2,0.2-1.6,0.6c-0.2,0.2-0.4,0.4-0.6,0.6c0.1,0,0.1-0.1,0.2-0.1c0.4-0.1,0.7-0.2,1.1-0.2c0.3,0,0.6,0.1,0.8,0.2
			c0.2-0.3,0.4-0.6,0.7-0.8C24.6,46.9,24.4,46.8,24.2,46.8L24.2,46.8z M29,42.8c-0.4-0.2-0.8-0.4-1.3-0.5c0.1,0.1,0.1,0.1,0.2,0.2
			c0.6,0.4,1.1,1.1,1.1,1.9c0.1,0,0.1,0,0.1,0.1h0.1l0.1,0.1l0,0l0.9,0.8C30.3,44.4,29.8,43.4,29,42.8L29,42.8z M121.8,49.7
			L121.8,49.7c0.2-0.1,0.4-0.3,0.6-0.5c0.1-0.1,0.2-0.2,0.3-0.2c-0.4-0.2-0.8-0.3-1.3-0.3c-0.6,0-1.2,0.2-1.6,0.6
			c-0.2,0.1-0.4,0.3-0.5,0.5c0.1,0,0.2-0.1,0.2-0.1c0.3-0.1,0.7-0.2,1-0.2C121,49.4,121.4,49.5,121.8,49.7L121.8,49.7z M121.7,51.7
			c0.1,0.6,0.3,1.1,0.7,1.5c0.3,0.3,0.6,0.4,1,0.5c0.4,0.1,0.7,0.1,1.1,0.2c0.3,0,1.1-0.2,0.8-0.6c-0.2-0.2-0.4-0.4-0.5-0.7
			c-0.2-0.3-0.3-0.6-0.4-0.9c-0.1-0.5-0.2-0.9-0.3-1.4c0-0.2-0.1-0.3-0.2-0.5c-0.1-0.1-0.2-0.2-0.4-0.2c-0.1,0-0.2,0.1-0.4,0.3
			c-0.4,0.4-0.8,0.8-1.2,1.2C121.7,51.1,121.6,51.4,121.7,51.7L121.7,51.7z M118.3,56c-0.2,0.5-0.4,1-0.4,1.5v0.1
			c0.1-0.1,0.1-0.2,0.2-0.2c0.3-0.7,0.9-1.2,1.7-1.5c0-0.2-0.1-0.3-0.1-0.5c0-0.2,0-0.4,0.1-0.6v-0.1C119.2,55,118.7,55.4,118.3,56z
			 M78.8,48H80c-0.2-0.7-0.6-1.3-1.2-1.7c-0.4-0.3-1-0.4-1.5-0.5H77c0.1,0,0.2,0.1,0.2,0.1c0.8,0.3,1.3,0.9,1.6,1.7l0,0L78.8,48z
			 M124.7,58.1c-0.1-0.1-0.2-0.2-0.2-0.3c-0.3,0.5-0.5,1.1-0.5,1.7c0,0.8,0.3,1.5,0.9,2c0-0.1-0.1-0.2-0.1-0.2
			c-0.1-0.3-0.1-0.6-0.1-0.8c0-0.5,0.1-1,0.4-1.5l0,0l0.2-0.2l-0.1-0.1C125.1,58.4,124.9,58.2,124.7,58.1L124.7,58.1z M131,58.3
			L131,58.3l-0.1-0.2h-1.1c0.2,0.7,0.6,1.4,1.2,1.8c0.5,0.3,1,0.4,1.6,0.4h0.1c-0.1,0-0.1-0.1-0.2-0.2
			C131.7,59.8,131.2,59.1,131,58.3L131,58.3z M28,56.5c-0.5,0.5-0.8,1.2-0.8,2c0,0.3,0.1,0.6,0.1,0.8c0-0.1,0.1-0.2,0.1-0.2
			c0.2-0.7,0.6-1.3,1.1-1.7c-0.1-0.2-0.3-0.3-0.4-0.5C28,56.7,28,56.7,28,56.5L28,56.5z M71,49c-0.6,0-1.2,0.3-1.7,0.6h0.6
			c0.3,0,0.7,0.1,1,0.2c0.2-0.2,0.4-0.5,0.7-0.7C71.4,49,71.2,49,71,49z M72,52.5v0.2c0,0.2,0,0.2,0.2,0.2c0.3,0.1,0.5,0.2,0.8,0.2
			h0.6c0.2,0,0.4,0,0.6-0.1c0.1-0.2,0.1-0.3,0.2-0.5c0.1-0.3,0.2-0.6,0.2-0.9c0.1-0.3,0.1-0.5,0.1-0.8v-0.5c-0.3-0.3-0.6-0.6-1-0.9
			c-0.1-0.1-0.3-0.2-0.5-0.2c-0.2,0-0.4,0.1-0.6,0.2c-0.2,0.2-0.5,0.3-0.7,0.5c-0.2,0.1-0.3,0.3-0.3,0.5c0,0.1,0,0.3,0.2,0.4
			c0.2,0.3,0.4,0.7,0.4,1.2C72,52.2,72,52.3,72,52.5L72,52.5z M132.8,54.1c-0.1-0.2-0.2-0.4-0.2-0.7c0.1-0.6,0.3-1.1,0.7-1.5
			c0.1-0.1,0.1-0.2,0.1-0.2c0.3-0.5,0.4-1.1,0.4-1.7c0-1.1-0.5-2.1-1.3-2.8c-0.2-0.2-0.2-0.5-0.2-0.8c0-0.7,0.2-1.3,0.4-1.9
			c0.3-0.7,0.5-1.4,0.6-2.2c0-0.4-0.1-0.8-0.3-1.1c-0.1,0.6-0.3,1.9-1.1,1.8c-0.6,0-0.5-0.8-0.5-1.2c0-0.1,0-0.3,0.1-0.4
			c0.1-0.4,0.1-0.9,0.1-1.3c0-0.8-0.1-1.7-0.4-2.5c-0.1,0.4-0.2,0.8-0.4,1.2c-0.1,0.1-0.2,0.1-0.3,0.2c-0.2,0-0.3-0.1-0.4-0.2
			c-0.1-0.2-0.1-0.2-0.2-0.4c-0.1-0.3-0.1-0.5-0.1-0.5c-0.1-0.5-0.2-0.9-0.3-1.4c-0.1-0.6-0.3-1.2-0.5-1.8c0,0.3-0.1,0.6-0.1,0.8
			c-0.1,0.4-0.1,0.9-0.6,1.1s-0.4-0.2-0.4-0.5s-0.2-0.7-0.2-1c-0.1-0.6-0.3-1.1-0.5-1.7c0-0.2-0.2-0.4-0.3-0.5
			c0,0.1-0.1,0.2-0.1,0.2c-0.1,0.3-0.3,0.5-0.4,0.8c-0.4,0.7-0.9,1.4-1.6,1.9c-0.9,0.8-2.1,1.2-3.3,1.2c-2-0.1-3.9-0.7-5.6-1.8
			c-1.1-0.8-3-1.9-4.3-2.8L111,32h1.8c1.8,0.1,3.6-0.2,5.3-0.9c1.4-0.7,2.5-1.8,3.4-3.1c0.8-1.2,1.8-2.3,3-3.1
			c0.8-0.5,1.8-0.7,2.7-0.7c0.8,0,1.6,0.1,2.3,0.4c-0.6-1.6-2.1-2.7-3.8-2.6c-1.7,0.1-3.3,0.9-4.3,2.2l-0.2,0.2V24
			c0-0.1-0.1-0.4-0.1-0.6c-0.2-0.7-0.4-1.3-0.8-1.9c-1-1.4-2.8-2.8-6.6-2.8h-1c-3.1,0.1-8.9,2.1-14.2,3.2c-5.3,1-10.7,1.5-16.2,1.5
			c-1.2,0-2.4-0.1-3.5-0.4c-0.9-0.2-1.8-0.6-2.5-1.3c-0.4-0.4-0.6-1-0.6-1.5c0-1,0.5-2,1.5-2.4c0.8-0.3,1.7-0.5,2.6-0.5
			c2.5,0,6,1.6,8.8,2.7c1.6,0.6,3.3,0.8,5,0.8c2.9,0,6.6-1.6,8.4-2.4c1.5-0.7,3.2-1.1,5-1.1c0.6,0,1.1,0,1.7,0.1
			c-1.3-1.2-3-1.9-4.7-1.9c-1.7,0-3.4,0.5-4.8,1.4L99,16.9l-0.1-0.1c-0.1-0.2-0.1-0.4-0.2-0.5c0-0.6,0.3-1.1,0.7-1.5
			c0.4-0.5,0.9-0.9,1.6-1.1c-0.7-0.3-1.4-0.6-2.1-0.7c-1.3-0.3-2.6-0.4-3.9-0.5h-0.5c-1.9,0.1-3.9,0.5-5.6,1.3
			c-1.7,0.8-3.6,1.2-5.5,1.2h-2c-2-0.1-3.9,0.3-5.7,1c-1.5,0.6-2.4,2.1-2.4,3.7c0.1,1.6,1,3.1,2.5,3.9c2.1,1.1,4.5,1.6,6.9,1.5h0.2
			c7.3-0.1,16-1.9,21.3-2.8c1.8-0.3,5.5-1.4,8.7-1.4c1.3-0.1,2.6,0.2,3.8,0.9c1.1,0.7,1.8,2,1.6,3.3c0,0.9-0.3,1.8-0.8,2.5
			c-0.9,1-2.3,1.5-3.6,1.4c-2.5-0.2-5.1-0.5-7.6-1.1H106c-0.6-0.1-1.3-0.1-2-0.3c-4.3-0.5-8.7-0.8-13-0.9h-0.8
			c-3.8,0.1-7.6,0.5-11.3,1.1c-4.5,0.8-8.7,1.8-10,2.1v0.1l-0.1,4.3l-1.2-1.9v0.2c0,1.5-0.2,2.9-0.7,4.3c-0.1,0.4-0.3,0.8-0.5,1.1
			c-0.1,0.1-0.1,0.1-0.1,0.2l-1,1.9l-0.9-1.5c-0.3,1.8-1,3.5-2.2,4.8c-0.5,0.5-1,1-1.5,1.4L60.6,45c-0.2,0.2-0.4,0.3-0.5,0.4
			l-1.8,1.1v-3.2c-0.3,0.4-0.7,0.9-1.1,1.2c-0.6,0.6-1.5,1-2.4,1c-0.3,0-0.6-0.1-0.8-0.2l-1.5-0.5l0.8-1.3c0.1-0.2,0.2-0.4,0.3-0.6
			c0.2-0.4,0.3-0.8,0.4-1.2c0-0.1,0-0.2,0-0.2c-0.3-0.1-0.5-0.2-0.8-0.2c-0.2,0-0.4,0-0.6,0.1c-0.9,0.1-2.7,0.6-5.9,2.4
			c-1.7,0.9-3.3,1.9-5,2.9c-1,0.7-2.1,1.3-3.2,1.8c-1.5,0.9-3.2,1.5-4.9,1.8c-0.5,0.1-0.9,0.1-1.4,0.2c-0.7,0-1.3-0.2-1.8-0.7
			c-0.7-0.1-1.4-0.2-2-0.5c-0.6-0.4-1.2-0.8-1.7-1.2c-0.3-0.3-0.6-0.6-0.8-0.9c-0.9,0.8-1.5,1.9-1.7,3.1v1.4h0.4
			c1.8,0,3.6-0.2,5.3-0.5h0.1c0.2,0,0.4,0.1,0.4,0.3v0.2c0,0.2-0.1,0.4-0.3,0.5c-1.8,0.5-3.7,0.7-5.6,0.6h-0.4
			c0.1,0.9,0.3,1.8,0.7,2.5c0.3,0.6,0.9,1,1.6,1.1h0.1c1.4-1.1,2.9-2,4.6-2.6h0.1c0.2,0,0.4,0.1,0.4,0.3v0.2c0,0.2-0.1,0.4-0.3,0.5
			h-0.1c-0.1,0-0.1,0.1-0.4,0.2s-0.7,0.3-1.3,0.6s-0.7,0.5-1.2,0.7v0.1c0,0.1,0,0.2,0.1,0.4c0.4,0.6,0.8,1.4,1.1,1.8
			c0.2,0.4,0.7,0.7,1.1,0.7c0.4,0,1-0.3,1.7-1.3c0.5-0.6,1.2-1,2-1l2.5-0.2h0.2c0.1,0,0.3-0.1,0.4-0.1c0.4-0.1,0.7-0.4,1-0.7
			c0.1-0.2,0.3-0.4,0.5-0.5c0.2-0.1,0.4-0.2,0.7-0.2c0.6,0.1,1.1,0.2,1.6,0.3c0.8,0.3,1.6,0.4,2.5,0.5c0.2,0,0.3,0,0.4-0.1l-0.3-0.3
			c-0.2-0.2-0.5-0.5-0.7-0.8c-0.1-0.1-0.2-0.3-0.2-0.5c0-0.1,0-0.2,0.1-0.3c0.1-0.1,0.3-0.2,0.4-0.2c0.1,0,0.3,0.1,0.4,0.2
			c0.1,0.1,0.2,0.2,0.2,0.2c1.4,0.8,2.9,1.3,4.5,1.3c0.4,0,0.8,0,1.2-0.2c-0.3-0.2-0.6-0.4-0.9-0.7c-0.1-0.1-0.2-0.3-0.2-0.5
			c0-0.1,0.1-0.2,0.2-0.3c0.1-0.1,0.3-0.2,0.5-0.2c0.4,0,0.7,0.1,1.1,0.2c0.1,0,0.2,0,0.3,0.1c0.3,0,0.5,0.1,0.7,0.2
			c0.7,0.1,1.4,0.2,2.2,0.2c0.7,0,1.4-0.1,2-0.5c-0.8-0.8-1.3-1.3-1.3-1.3c-0.1-0.1-0.2-0.3-0.2-0.5c0-0.1,0-0.3,0.2-0.4
			c0.1-0.2,0.3-0.2,0.4-0.2c0.2,0,0.5,0.1,0.7,0.2c0.1,0.1,0.2,0.1,0.4,0.2c0.2,0.1,0.5,0.2,0.9,0.3c0.8,0.2,1.7,0.4,2.6,0.4
			c0.7,0,1.4-0.2,2-0.5c-0.4-0.1-0.7-0.3-1-0.6c-0.2-0.2-0.2-0.5-0.1-0.7c0.1-0.1,0.2-0.2,0.3-0.2c0.1-0.1,0.2-0.1,0.4-0.1h0.2
			c0.3,0,0.5,0.1,0.8,0.1c0.9,0,1.8-0.2,2.6-0.6l-1.5-1.9c0.2-0.1,0.4-0.2,0.7-0.3c0.2-0.1,0.5-0.2,0.7-0.3c0.6-0.2,1.4-0.4,2.4-0.7
			c2.5-0.8,5-1.9,7.3-3.2c5.3-3,10.4-6.8,15.6-8.1c1.2-0.3,2.5-0.5,3.7-0.5c1.2,0,2.4,0.1,3.6,0.4c1.2,0.5,2.3,1.2,3.2,2.2
			c1.2,1.2,2.4,2.5,3.4,3.7c0.8,1,1.7,1.9,2.7,2.7l0.2,0.2c0.1,0.1,0.3,0.2,0.4,0.3c0.3,0.2,0.7,0.5,1,0.7c0.9,0.6,1.8,1,2.8,1.2
			c-0.1-0.3-0.4-2.3,0.4-1.9c0.4,0.2,0.5,0.5,0.8,0.8s0.7,0.6,1.1,0.9c0.5,0.5,1.2,0.7,1.9,0.8c0.2,0,0.4-0.1,0.6-0.2l-0.7-0.8
			c-0.1-0.1-0.1-0.2-0.2-0.3c0-0.2,0.1-0.2,0.2-0.3c0.2-0.1,0.4-0.2,0.7-0.2h1.6c1,0,2.1-0.1,3.1-0.2c1.1-0.2,2.2-0.5,3.3-0.9
			c0.1,0,0.2-0.1,0.3-0.1c0.3-0.1,0.5-0.1,0.8-0.2c0.7,0,1.2,0.4,1.3,1.1c0.2,0.4,0.3,0.8,0.4,0.9c0.8,1.3,1.2,2.8,1.3,4.3
			c0,0.3,0,0.6-0.1,0.9c-0.1,0.9-0.3,1.7-0.7,2.5c-1,1.4-1.9,1.5-2.1,1.5h-0.5c-0.2,0-0.4,0-0.6-0.1c-0.6-0.2-1.2-0.4-1.8-0.5
			c-0.2,0-0.3,0-0.4,0.1c-0.4,0.2-0.7,0.7-0.7,1.2c0,0.4,0.1,0.7,0.3,1.1l0,0c0,0.1,0,0.1,0.1,0.2c0.1,0.1,0.2,0.2,0.2,0.4
			c0.3,0.4,0.7,0.6,1.2,0.5h0.2c0.5-0.1,0.9-0.3,1.3-0.7c0.3-0.2,0.5-0.5,0.7-0.8l0.1-0.1l0.9-1.3c0,0,0.1-0.1,0.1-0.2
			c0.1-0.1,0.2-0.1,0.3-0.2c0.1,0,0.2,0,0.2,0.1c0.1,0.1,0.2,0.2,0.2,0.4c0,0.1,0,0.2-0.1,0.2c0,0.1,0,0.1-0.1,0.2
			c-0.1,0.1-0.1,0.2-0.2,0.2c-0.1,0.2-0.2,0.3-0.4,0.5c-0.3,0.4-0.5,0.7-0.5,0.7V57c0,0.2,0.1,0.3,0.2,0.4c0.2,0.2,0.4,0.5,0.7,0.8
			c0.1,0.3,0.3,0.4,0.6,0.5c0.6,0.2,1.2-0.5,1.5-0.9c0.3-0.3,0.5-0.7,0.7-1.1c0.2-0.6,0.3-1.2,0.2-1.8v-1.2c0-0.1,0-0.2,0.1-0.3
			c0.1-0.1,0.2-0.2,0.3-0.2h0.1c0.2,0,0.4,0.2,0.4,0.2c0,0.1,0.1,0.1,0.1,0.2v1.8c0,0.4,0,0.8-0.1,1.2v0.2c0,0.1,0,0.2,0.1,0.2
			c0,0,0.1,0.1,0.1,0.1c0.1,0.1,0.2,0.1,0.3,0.1l2.1-0.1l0,0c0.2,0,0.4,0,0.6-0.2c0.3-0.2,0.5-0.6,0.5-1v-0.3c0-0.3-0.1-0.7-0.3-0.9
			C133.2,54.5,132.9,54.3,132.8,54.1L132.8,54.1z M101.1,48.6c-0.6-0.1-1.1-0.3-1.6-0.6c-1-0.6-1.6-1.7-1.7-2.8
			c0.1-1.3,0.6-2.5,1.5-3.4c0.6-0.6,1.2-1.2,1.9-1.7l-2.7-2.8c-0.8-0.7-1.7-1.3-2.7-1.7c-1.1-0.2-2.2,0-3.1,0.5
			c-0.6,0.3-1.3,0.6-1.8,1c-1.8,1.4-3.2,3.3-4,5.4c0.1-0.1,0.2-0.2,0.4-0.3c0.3-0.3,0.7-0.5,1.1-0.7c0.1,0,0.2-0.1,0.3-0.1
			c0.2,0,0.4,0.1,0.4,0.2c0.1,0.1,0.1,0.2,0.1,0.4c0,0.1,0,0.3-0.1,0.4s-0.1,0.2-0.1,0.4c-0.1,0.3-0.2,0.6-0.2,0.9
			c-0.2,0.7-0.3,1.4-0.3,2.2c0.4-0.7,1-1.2,1-1.3l0.1-0.1c0.1-0.1,0.2-0.1,0.3-0.1c0.1,0,0.2,0,0.2,0.1c0.1,0.1,0.1,0.2,0.2,0.2v0.3
			c-0.2,0.9-0.1,1.9,0.3,2.8c0.5,0.6,0.6,1.5,0.3,2.2c-0.4,0.7-1,1.3-1.6,1.8c-0.4,0.3-0.9,0.4-1.4,0.5c-0.7,0-1.3,0.1-2,0.2
			c-0.9,0.3-1.6,1-2.5,1.2c-0.3,0.1-0.5,0.1-0.8,0.1c-1.1,0-2.2-0.4-3-1.2c-0.3-0.3-0.5-0.8-0.6-1.3c0.1-0.8,0.4-1.6,1-2.2l0.1-0.1
			c0-0.1,0.1-0.2,0.1-0.2v-0.1c-0.1-0.1-0.1-0.1-0.2-0.1h-2.7c-0.4,0-0.7,0.1-1,0.4l-0.1,0.1L76,49.3c-0.1,0.2-0.2,0.4-0.4,0.7
			c-0.1,0.6-0.2,1.2-0.2,1.8c-0.2,0.7-0.5,1.5-0.6,2.1v0.3c0,0.7,0.2,1.3,0.6,1.8c1.1,1.3,2.5,2.2,4.2,2.6c1.2,0.3,2.4,0.6,3.6,0.8
			h0.2c0.2-0.1,2.7-0.8,3.5-0.9s2.9-0.4,3.8-0.5l-1.3-0.7l-0.2-0.2c-0.1-0.1-0.1-0.2-0.2-0.4c0-0.1,0-0.2,0.1-0.2
			c0.1-0.2,0.1-0.2,0.2-0.2c0.1-0.1,0.2-0.1,0.3-0.1H90c0.3,0,0.5,0.1,0.8,0.1c0.5,0,1.2,0.1,1.8,0.1c0.5,0,1,0,1.5-0.1
			c0.7,0,1.4-0.4,1.9-0.9c-0.1,0-0.2,0-0.2-0.1c-0.2-0.1-0.4-0.1-0.6-0.2c-0.2-0.1-0.5-0.2-0.7-0.4c-0.1-0.1-0.2-0.1-0.2-0.2
			c-0.1-0.1-0.1-0.2-0.2-0.4v-0.1c0-0.1,0.1-0.2,0.2-0.2s0.2-0.1,0.2-0.2c0.1,0,0.2-0.1,0.3-0.1l1-0.2c0.6-0.1,1.2-0.2,1.7-0.5
			c0.7-0.3,1.3-0.7,1.9-1.2L99,51.6c-0.4-0.2-0.8-0.4-1.1-0.7l-0.2-0.2c-0.1-0.1-0.1-0.2-0.2-0.4v-0.2c0.1-0.1,0.1-0.2,0.2-0.2
			c0.1-0.1,0.2-0.1,0.3,0c0.1,0,0.2-0.1,0.3-0.1s0.2,0,0.3-0.1c0.2-0.1,0.4-0.1,0.7-0.2c0.6-0.1,1.2-0.4,1.8-0.6
			c0.2-0.1,0.4-0.3,0.5-0.5h-0.1C101.6,48.7,101.3,48.7,101.1,48.6L101.1,48.6z M69.7,55c-0.2,0.2-0.3,0.5-0.4,0.8
			c0.1-0.1,0.2-0.1,0.2-0.2c0.4-0.3,0.9-0.6,1.4-0.7c0-0.2,0.1-0.4,0.1-0.5v-0.1l0,0c0.1-0.2,0.1-0.3,0.2-0.4
			C70.5,54.2,70,54.6,69.7,55z M74.7,57.4c-0.1,0.1-0.3,0.2-0.4,0.3l-0.2,0.2C74,58,74,58.1,73.9,58.1c0,0.1-0.1,0.3-0.1,0.4
			c0,0.2,0.1,0.5,0.2,0.7c0.2,0.3,0.5,0.5,0.9,0.7c0.3,0.1,0.7,0.2,1,0.2c0.4,0,0.8-0.2,1-0.5c0.2-0.2,0.3-0.5,0.4-0.8
			c-0.9-0.4-1.7-0.9-2.3-1.6L74.7,57.4z M74.4,56.4c-0.4-0.6-0.6-1.3-0.6-2.1v-0.4l0,0c-0.3,0-0.7-0.1-1-0.1h-0.4
			c-0.2,0-0.2,0-0.3,0.2c-0.2,0.2-0.3,0.5-0.4,0.8c-0.1,0.3-0.1,0.6-0.2,0.9c0,0.3,0.1,0.6,0.4,0.7c0.5,0.2,1.1,0.4,1.6,0.4h0.1
			c0.1,0,0.3,0,0.4-0.1C74.3,56.6,74.4,56.4,74.4,56.4L74.4,56.4z M73.3,58.8c-0.4,0.6-0.6,1.2-0.6,1.9v0.1c0-0.1,0.1-0.2,0.2-0.2
			c0.1-0.3,0.3-0.6,0.6-0.8c-0.1-0.2-0.1-0.5-0.2-0.8C73.2,59,73.3,58.9,73.3,58.8L73.3,58.8z M38.6,17.2c0.6,0.5,1.4,0.9,2.2,1.1
			c0.7,0.2,1.5,0.3,2.2,0.3c1.4-0.1,2.8-0.2,4.2-0.5c1.3-0.3,2.7-0.4,4-0.5c1.4,0,2.8,0.4,3.9,1.2c-1.1-1-2.4-1.6-3.8-1.8
			c-1.4-0.2-2.8-0.2-4.2-0.1c-1.3,0.1-2.7,0.1-4,0c-1.2-0.1-2.3-0.6-3.2-1.5l-0.1-0.1c-0.4-0.4-1-0.3-1.3,0c0,0-0.1,0.1-0.1,0.1
			C38.1,16.1,38.2,16.8,38.6,17.2L38.6,17.2z"/>
		<path class="st2" d="M42.3,164.9c0.2-1.2,0.4-2.5,0.7-3.7l0,0c2.3,1.3,6.1,2,10.5,2.8c5.7,1.1,12.4,2.3,17.2,5.2
			c-1.2-0.5-2.7-1-4.4-1.5c-3.9-1.2-8.1-1.7-12.2-1.5C50.1,166.4,46.2,166,42.3,164.9z M110.2,166.6c-4.1,1-8.3,1.4-12.4,1.1
			c-4.2-0.3-8.4,0.2-12.4,1.3c-1.8,0.4-3.6,0.9-5.3,1.5c2-0.5,3.9-0.8,5.9-1c4.2-0.6,8.5-0.5,12.8,0.2c4,0.7,8,0.8,12,0.3
			C110.6,168.8,110.4,167.8,110.2,166.6z M81.5,169.1c1.2-0.5,2.7-1,4.4-1.5c3.9-1.2,8.1-1.7,12.2-1.5c4,0.3,7.9-0.2,11.7-1.3
			c-0.2-1.2-0.4-2.5-0.7-3.7l0,0c-2.3,1.3-6.1,2-10.4,2.8C93,165,86.3,166.2,81.5,169.1L81.5,169.1z M54.5,167.7
			c-4.2,0.2-8.4-0.2-12.5-1.1c-0.2,1.1-0.4,2.2-0.5,3.4c4,0.5,8,0.4,12-0.3c4.2-0.7,8.5-0.8,12.7-0.2c2,0.2,4,0.5,5.9,1
			c-1.3-0.5-3-1-5.3-1.5C62.8,167.9,58.7,167.5,54.5,167.7L54.5,167.7z M49.7,139.8l-6.3,19.6c5.3,3.5,24.7,2.7,32,11.6v-20.9
			C73.5,141.3,55,143.3,49.7,139.8z M102.4,139.8c-5.3,3.5-23.8,1.5-25.7,10.4v20.9c7.3-9,26.7-8.1,32-11.6L102.4,139.8z"/>
		<path class="st2" d="M16.2,87.5L17,89c0.4,0.6,1,1,1.7,1h0.1c-0.4,1-0.7,2.1-0.7,3.2v0.8c0.1,0.7,0,1.4-0.2,2.1
			c-0.1,0.2-0.3,0.4-0.4,0.6c-0.7,0.6-1,1.5-0.7,2.3l0,0c0.3,0.8,1.1,1.4,1.9,1.4c0.2,0.1,0.5,0.1,0.7,0.2c0.5,0.4,1,0.9,1.3,1.5
			c0.1,0.2,0.3,0.4,0.4,0.6c0.7,1,1.7,1.8,2.8,2.3c-0.8,0.4-1.2,1.3-1,2.2l0.4,1.8c0.2,0.9,1,1.6,1.9,1.6c0.2,0,0.3,0,0.4-0.1
			l1.7-0.4c0.7-0.2,1.3-0.7,1.5-1.4c0.8,0.7,1.7,1.3,2.7,1.7l0.7,0.2c0.7,0.2,1.3,0.5,1.8,0.8c0.2,0.2,0.3,0.4,0.4,0.6
			c0.3,0.8,1.1,1.4,1.9,1.5l0,0c0.9-0.1,1.6-0.6,1.9-1.5c0.1-0.2,0.2-0.4,0.4-0.6c0.5-0.4,1.2-0.7,1.8-0.8c1.4-0.4,2.6-1.2,3.6-2.2
			c0.1,0.3,0.2,0.6,0.4,0.9c0.3,0.4,0.8,0.7,1.3,0.8l1.7,0.2h0.2c1,0,1.9-0.8,1.9-1.8l0.2-1.8c0.1-0.5-0.1-1.1-0.4-1.5
			c-0.2-0.2-0.2-0.3-0.4-0.4c0.9-0.5,1.7-1.3,2.4-2.2c0.2-0.2,0.3-0.4,0.4-0.6c0.3-0.6,0.8-1.1,1.3-1.5l0.7-0.2
			c0.9-0.1,1.6-0.6,1.9-1.5l0,0c0.2-0.8-0.1-1.7-0.7-2.3c-0.2-0.2-0.4-0.4-0.4-0.6c-0.2-0.7-0.3-1.4-0.2-2.1v-0.8
			c0-1.2-0.4-2.5-1-3.5h0.2c0.8,0,1.5-0.5,1.8-1.2l0.7-1.6c0.2-0.5,0.2-1.1,0-1.5c-0.2-0.5-0.5-0.9-1-1.2l-1.6-0.7
			c-0.3-0.1-0.5-0.1-0.8-0.2c-0.4,0-0.8,0.1-1.2,0.4c-0.2-1.1-0.6-2.1-1.2-3c-0.2-0.2-0.3-0.4-0.4-0.6c-0.5-0.5-0.8-1.1-1-1.8v-0.8
			c0.2-0.8,0-1.7-0.6-2.4L48,75.2l0,0l0.2-0.2c-0.3-0.2-0.6-0.4-1-0.4c-0.5,0-0.9,0.1-1.3,0.4c-0.2,0.1-0.4,0.2-0.7,0.2H45
			c-0.6-0.1-1.2-0.2-1.8-0.5l-0.7-0.2c-0.7-0.2-1.5-0.4-2.2-0.4c-0.4,0-0.9,0.1-1.3,0.2c0.2-0.3,0.2-0.7,0.2-1
			c0-0.5-0.2-1.1-0.7-1.4l-1.3-1.2c-0.4-0.3-0.8-0.5-1.3-0.5c-0.6,0-1.1,0.3-1.5,0.7l-1.2,1.3c-0.5,0.5-0.6,1.3-0.4,2
			c-0.3-0.1-0.7-0.1-1-0.1c-0.8,0-1.5,0.2-2.2,0.4L29,74.7c-0.6,0.3-1.2,0.4-1.8,0.5H27l-0.7-0.2c-0.4-0.2-0.9-0.3-1.3-0.4
			c-0.4,0-0.7,0.2-1,0.4l0,0c-0.6,0.6-0.9,1.5-0.7,2.4c0,0.2,0.1,0.5,0.1,0.8c-0.2,0.6-0.6,1.3-1,1.8c-0.1,0.2-0.3,0.4-0.4,0.6
			c-0.7,1-1.2,2.2-1.3,3.5c-0.3-0.4-0.8-0.6-1.3-0.5c-0.4,0-0.7,0.1-1,0.3l-1.5,0.9c-0.4,0.3-0.8,0.7-0.9,1.2
			C15.8,86.4,15.9,87,16.2,87.5"/>
		<path class="st2" d="M36,83.5c2,0,3.6,1.4,4,3.3h0.5c1.7,0,3.3,1.2,3.8,2.8c0.6,1.9-0.2,3.9-1.8,4.9c0.3,0.8,0.5,1.6,0.4,2.5
			c-0.2,1.1-0.7,2.1-1.6,2.7c-1.5,1.1-3.6,1-5-0.3c-0.7,0.7-1.7,1.1-2.7,1.2c-0.9,0-1.7-0.3-2.4-0.8c-1.6-1.2-2.1-3.3-1.3-5.1
			c-0.7-0.4-1.3-1-1.6-1.8c-0.5-1-0.6-2.1-0.2-3.2c0.5-1.7,2-2.8,3.8-2.8h0.4c0.1-0.8,0.5-1.6,1.1-2.2C33.9,84,34.9,83.5,36,83.5"/>
		<path d="M36.5,83.5c1.7,0.2,3.1,1.6,3.5,3.3h0.5c1.6,0,3,0.9,3.6,2.4c1.1-0.4,2.2-0.8,3.3-1.4c3.2-1.6,3.4-3.8,1.7-6.4
			c-0.8-0.9-1.4-2-1.7-3.2c-0.1-0.8,0.2-1.8-0.1-2l0,0c-0.3-0.2-1,0.4-1.8,0.5c-1.1,0.2-2.5-0.5-3.4-0.7c-2.9-0.8-4.7,0.1-5.3,3.7
			C36.7,81.1,36.6,82.3,36.5,83.5 M35.8,75.9c0.2,0.2,0.4,0.2,0.6,0l1.1-1.9c0.2-0.2,0.2-0.4,0-0.6l-1.3-1.2c-0.2-0.2-0.4-0.2-0.6,0
			l-1.2,1.3c-0.2,0.2-0.2,0.4,0,0.6L35.8,75.9z M24.9,87.8c1,0.6,2.1,1,3.2,1.3c0.6-1.4,2-2.3,3.6-2.3h0.4c0.1-0.8,0.5-1.6,1.1-2.2
			c0.7-0.7,1.6-1.1,2.5-1.2c0-1.2-0.1-2.4-0.2-3.6c-0.5-3.6-2.5-4.5-5.3-3.7c-0.9,0.2-2.3,0.9-3.4,0.7C26,76.6,25.3,76,25,76.2
			s0,1.2-0.1,2c-0.3,1.2-0.9,2.2-1.7,3.2C21.6,84.1,21.8,86.2,24.9,87.8 M17.5,86.7l0.9,1.5c0.1,0.2,0.3,0.3,0.5,0.2
			c0,0,0.1,0,0.1,0l2-0.8c0.2-0.1,0.3-0.4,0.2-0.6c0,0,0,0,0-0.1l-1.4-1.7c-0.1-0.2-0.3-0.3-0.5-0.2c0,0-0.1,0-0.1,0l-1.5,0.9
			C17.4,86.2,17.4,86.4,17.5,86.7C17.5,86.6,17.5,86.7,17.5,86.7 M51.4,87.5l2.1,0.5c0.2,0.1,0.5,0,0.6-0.2l0.7-1.6
			c0.1-0.2,0-0.5-0.2-0.6l-1.6-0.7c-0.2-0.1-0.5,0-0.6,0.2l-1.2,1.8C51,87.1,51.2,87.4,51.4,87.5 M27.1,105.9
			c-0.1-0.2-0.3-0.4-0.5-0.4l-1.9,0.9c-0.2,0.1-0.4,0.3-0.4,0.5l0.4,1.8c0.1,0.2,0.3,0.4,0.5,0.4l1.7-0.4c0.2-0.1,0.4-0.3,0.4-0.5
			L27.1,105.9z M52.8,93.2c-0.2-3.1-1.6-4.7-5-4.1c-1.1,0.2-2.3,0.5-3.4,0.8c0.4,1.8-0.3,3.6-1.9,4.5c0.3,0.8,0.5,1.6,0.4,2.5
			c-0.1,0.9-0.6,1.7-1.2,2.4c0.6,0.9,1.4,1.8,2.2,2.6c2.5,2.6,4.5,2.2,6.4-0.2c0.5-0.7,1.3-2.2,2.4-2.6c0.8-0.4,1.7-0.3,1.8-0.7l0,0
			c0.2-0.4-0.7-0.9-1.1-1.6C52.8,95.7,52.7,94.4,52.8,93.2 M29.8,94.7c-0.7-0.4-1.3-1-1.6-1.8c-0.5-0.9-0.6-2-0.3-2.9
			c-1.1-0.4-2.2-0.7-3.3-0.8c-3.5-0.6-4.9,1-5,4.1c0,0.9,0.1,2.5-0.4,3.5c-0.4,0.8-1.2,1.3-1.1,1.6l0,0c0.1,0.4,1,0.3,1.8,0.7
			c1,0.5,1.8,1.9,2.4,2.6c1.9,2.5,3.9,2.8,6.4,0.2c0.8-0.8,1.5-1.6,2.1-2.5C29.4,98.2,29,96.3,29.8,94.7 M47.9,106l-2.1-0.6
			c-0.2,0-0.4,0.2-0.5,0.4l0.2,2.2c0,0.2,0.1,0.5,0.4,0.5l1.7,0.2c0.2,0,0.4-0.2,0.4-0.4l0.2-1.8c0.1-0.2,0.1-0.4-0.1-0.5
			C48,106,47.9,106,47.9,106 M42.7,102.8c1.6,3.2,0.6,5.2-2.2,6.2c-0.8,0.3-2.4,0.6-3.1,1.5c-0.6,0.7-0.8,1.6-1.2,1.6
			s-0.6-0.9-1.2-1.6c-0.7-0.8-2.3-1.2-3.1-1.5c-2.8-1.1-3.9-2.9-2.2-6.2c0.5-1,1-1.9,1.6-2.8c0.6,0.4,1.3,0.6,2.1,0.6
			c1,0,2-0.4,2.7-1.2c0.7,0.7,1.7,1.1,2.7,1.1c0.7,0,1.5-0.2,2.1-0.6C41.6,100.8,42.2,101.8,42.7,102.8"/>
		<path d="M30.9,93.5c0.2,0.1,0.4,0.1,0.7,0.2l0,0c0.1,0,0.2,0.1,0.3,0.2c0.1,0.2,0.1,0.5-0.1,0.6l0,0l-0.4,0.5
			c-0.8,1.2-0.6,2.7,0.5,3.6c1.1,0.8,2.6,0.6,3.4-0.5c0,0,0-0.1,0.1-0.1c0.1-0.2,0.2-0.4,0.3-0.6l0,0c0.1-0.2,0.2-0.2,0.3-0.2
			c0.2-0.1,0.4,0,0.5,0.2c0,0,0,0,0,0l0,0c0.1,0.2,0.2,0.4,0.3,0.5c0.8,1.1,2.3,1.4,3.4,0.6c0,0,0.1,0,0.1-0.1
			c1.1-0.9,1.3-2.5,0.5-3.6c-0.2-0.2-0.3-0.4-0.4-0.5l0,0c-0.1-0.1-0.1-0.2-0.2-0.4c0-0.2,0.1-0.4,0.4-0.5l0,0
			c0.2,0,0.4-0.1,0.6-0.2c1.3-0.5,2-1.9,1.6-3.2c-0.4-1.3-1.8-2.1-3.1-1.7c-0.2,0.1-0.4,0.2-0.6,0.3l0,0c-0.1,0.1-0.2,0.1-0.4,0.1
			c-0.2-0.1-0.4-0.3-0.3-0.5l0,0c0.1-0.2,0.1-0.4,0.1-0.6c0.2-1.4-0.8-2.6-2.2-2.8c-1.4-0.2-2.6,0.8-2.8,2.2c0,0.2,0,0.4,0,0.6
			c0,0.2,0,0.5,0.1,0.7l0,0c0,0.1,0,0.3-0.1,0.4c-0.1,0.2-0.4,0.3-0.6,0.2l0,0c-0.2-0.1-0.3-0.2-0.5-0.2c-1.3-0.4-2.6,0.2-3.1,1.5
			c0,0.1,0,0.1-0.1,0.2C28.9,91.7,29.6,93.1,30.9,93.5"/>
		<path class="st2" d="M34,92.5c0-1.1,0.9-1.9,2-1.9c1.1,0,1.9,0.9,1.9,2c0,1-0.9,1.9-1.9,1.9C34.9,94.4,34,93.5,34,92.5"/>
		<path class="st2" d="M136,87.5l-0.9,1.5c-0.4,0.6-1,1-1.7,1h-0.1c0.4,1,0.7,2.1,0.7,3.2v0.8c0,0.7,0,1.4,0.2,2.1
			c0.1,0.2,0.3,0.4,0.4,0.6c0.7,0.6,1,1.5,0.7,2.3l0,0c-0.3,0.8-1.1,1.4-1.9,1.4c-0.2,0.1-0.5,0.1-0.7,0.2c-0.5,0.4-1,0.9-1.3,1.5
			c-0.1,0.2-0.3,0.4-0.4,0.6c-0.7,1-1.7,1.8-2.8,2.3c0.8,0.4,1.2,1.3,1,2.2L129,109c-0.2,0.9-1,1.6-1.9,1.6c-0.2,0-0.3,0-0.4-0.1
			l-1.7-0.4c-0.7-0.2-1.3-0.7-1.5-1.4c-0.8,0.7-1.7,1.3-2.7,1.7l-0.7,0.2c-0.7,0.2-1.3,0.5-1.8,0.8c-0.2,0.2-0.3,0.4-0.4,0.6
			c-0.3,0.8-1.1,1.4-1.9,1.5l0,0c-0.9-0.1-1.6-0.6-1.9-1.5c-0.1-0.2-0.2-0.4-0.4-0.6c-0.5-0.4-1.2-0.7-1.8-0.8
			c-1.4-0.4-2.6-1.2-3.6-2.2c-0.1,0.3-0.2,0.6-0.4,0.9c-0.3,0.4-0.8,0.7-1.3,0.8l-1.7,0.2h-0.2c-1,0-1.9-0.8-1.9-1.8l-0.2-1.8
			c-0.1-0.5,0.1-1.1,0.4-1.5c0.2-0.2,0.2-0.3,0.4-0.4c-0.9-0.5-1.7-1.3-2.4-2.2c-0.2-0.2-0.3-0.4-0.4-0.6c-0.4-0.6-0.9-1.1-1.4-1.6
			l-0.7-0.2c-0.9-0.1-1.6-0.6-1.9-1.5l0,0c-0.2-0.8,0.1-1.7,0.7-2.3c0.2-0.2,0.4-0.4,0.4-0.6c0.2-0.7,0.3-1.4,0.2-2.1v-0.8
			c0-1.2,0.4-2.5,1-3.5h-0.2c-0.8,0-1.5-0.5-1.8-1.2l-0.7-1.6c-0.2-0.5-0.2-1.1,0-1.5c0.2-0.5,0.5-0.9,1-1.2l1.6-0.7
			c0.3-0.1,0.5-0.1,0.8-0.2c0.4,0,0.8,0.1,1.2,0.4c0.2-1.1,0.6-2.1,1.2-3c0.2-0.2,0.3-0.4,0.4-0.6c0.5-0.5,0.8-1.1,1-1.8v-0.8
			c-0.2-0.9,0.1-1.7,0.7-2.4l0.2,0.2l0,0L104,75c0.3-0.2,0.6-0.4,1-0.4c0.5,0,0.9,0.1,1.3,0.4c0.2,0.1,0.4,0.2,0.7,0.2h0.2
			c0.6-0.1,1.2-0.2,1.8-0.5l0.7-0.2c0.7-0.2,1.5-0.4,2.2-0.4c0.4,0,0.9,0.1,1.3,0.2c-0.2-0.3-0.2-0.7-0.2-1c0-0.5,0.2-1.1,0.7-1.4
			l1.3-1.2c0.4-0.3,0.8-0.5,1.3-0.5c0.6,0,1.1,0.3,1.5,0.7l1.2,1.3c0.5,0.5,0.6,1.3,0.4,2c0.3-0.1,0.7-0.1,1-0.1
			c0.8,0,1.5,0.2,2.2,0.4l0.7,0.2c0.6,0.3,1.2,0.4,1.8,0.5h0.2l0.7-0.2c0.4-0.2,0.9-0.3,1.3-0.4c0.4,0,0.7,0.2,1,0.4l0,0
			c0.6,0.6,0.9,1.5,0.7,2.4c0,0.2-0.1,0.5-0.1,0.8c0.2,0.6,0.6,1.3,1,1.8c0.1,0.2,0.3,0.4,0.4,0.6c0.7,1,1.2,2.2,1.3,3.5
			c0.3-0.4,0.8-0.6,1.3-0.5c0.4,0,0.7,0.1,1,0.3l1.5,0.9c0.4,0.3,0.8,0.7,0.9,1.2c0.1,0.5,0,1.1-0.2,1.6"/>
		<path class="st2" d="M116.2,83.5c-1.9,0-3.6,1.4-3.9,3.3h-0.5c-1.7,0-3.3,1.2-3.8,2.8c-0.6,1.9,0.2,3.9,1.8,4.9
			c-0.3,0.8-0.5,1.6-0.4,2.5c0.1,1.1,0.7,2.1,1.6,2.7c1.5,1.1,3.6,1,5-0.3c0.7,0.7,1.7,1.1,2.7,1.2c0.8,0,1.7-0.3,2.4-0.8
			c1.6-1.2,2.1-3.3,1.3-5.1c0.8-0.4,1.4-1,1.7-1.8c0.5-1,0.6-2.1,0.2-3.2c-0.5-1.7-2-2.8-3.8-2.8h-0.4c-0.1-0.8-0.5-1.6-1.1-2.2
			C118.3,84,117.3,83.5,116.2,83.5"/>
		<path d="M115.6,83.5c0-1.2-0.1-2.5-0.2-3.7c-0.5-3.6-2.4-4.5-5.3-3.7c-0.9,0.2-2.3,0.9-3.4,0.7c-0.8-0.2-1.6-0.8-1.8-0.5l0,0
			c-0.3,0.2,0,1.2-0.1,2c-0.3,1.2-0.9,2.2-1.7,3.2c-1.6,2.5-1.4,4.7,1.7,6.4c1,0.6,2.1,1,3.3,1.4c0.6-1.4,2.1-2.4,3.6-2.4h0.5
			C112.6,85.1,113.9,83.8,115.6,83.5 M117.7,74.2c0.2-0.1,0.2-0.4,0-0.6c0,0,0,0,0,0l-1.2-1.3c-0.1-0.2-0.4-0.2-0.5-0.1
			c0,0,0,0-0.1,0.1l-1.3,1.2c-0.2,0.1-0.2,0.4,0,0.6c0,0,0,0,0,0l1.1,1.9c0.1,0.2,0.4,0.2,0.5,0.1c0,0,0,0,0.1-0.1L117.7,74.2z
			 M127.3,87.8c3.2-1.6,3.4-3.8,1.7-6.4c-0.8-0.9-1.4-2-1.7-3.2c-0.1-0.8,0.2-1.8-0.1-2s-1,0.4-1.8,0.5c-1.1,0.2-2.5-0.5-3.4-0.7
			c-2.9-0.8-4.7,0.1-5.3,3.7c-0.2,1.2-0.3,2.4-0.2,3.6c1,0.1,1.9,0.5,2.5,1.2c0.6,0.6,1,1.4,1.1,2.2h0.4c1.5,0,2.9,0.9,3.6,2.3
			C125.2,88.9,126.3,88.4,127.3,87.8 M134.7,86.7c0.1-0.2,0.1-0.5-0.1-0.6c0,0,0,0-0.1,0l-1.5-0.9c-0.2-0.1-0.4-0.1-0.5,0.1
			c0,0,0,0,0,0.1l-1.4,1.7c-0.1,0.2-0.1,0.5,0.1,0.6c0,0,0,0,0.1,0l2,0.8c0.2,0.1,0.4,0.1,0.5-0.1c0,0,0,0,0-0.1L134.7,86.7
			 M100.8,87.5c0.2-0.1,0.3-0.4,0.2-0.6L99.8,85c-0.1-0.2-0.4-0.3-0.6-0.2l-1.6,0.7c-0.2,0.1-0.3,0.4-0.2,0.6l0.7,1.6
			c0.1,0.2,0.4,0.3,0.6,0.2L100.8,87.5 M124.9,108.1c-0.1,0.2,0.1,0.5,0.3,0.5c0,0,0,0,0.1,0l1.7,0.4c0.2,0.1,0.4-0.1,0.5-0.4
			l0.4-1.8c0.1-0.2-0.1-0.5-0.3-0.5c0,0,0,0-0.1,0l-2-0.8c-0.2-0.1-0.4,0.1-0.5,0.4L124.9,108.1z M99.4,93.2c0,0.9,0.2,2.5-0.4,3.5
			c-0.4,0.8-1.2,1.3-1.1,1.6l0,0c0.2,0.4,1,0.3,1.8,0.7c1,0.5,1.8,1.9,2.4,2.6c1.8,2.5,3.9,2.8,6.4,0.2c0.8-0.8,1.5-1.7,2.2-2.6
			c-1.3-1.3-1.6-3.2-0.8-4.8c-1.5-0.9-2.3-2.8-1.9-4.5c-1.1-0.4-2.2-0.7-3.4-0.8C100.9,88.5,99.5,90.2,99.4,93.2 M122.4,94.7
			c0.7,1.6,0.4,3.5-0.9,4.8c0.6,0.9,1.3,1.8,2.2,2.5c2.4,2.6,4.5,2.2,6.4-0.2c0.5-0.7,1.3-2.2,2.4-2.6c0.8-0.4,1.7-0.3,1.8-0.7l0,0
			c0.1-0.4-0.7-0.9-1.1-1.6c-0.6-1-0.4-2.6-0.4-3.5c-0.1-3.1-1.6-4.7-5-4.1c-1.1,0.2-2.2,0.4-3.3,0.8c0.2,1,0.1,2-0.3,2.9
			C123.7,93.7,123.1,94.3,122.4,94.7 M104.3,106c-0.2,0-0.4,0.2-0.4,0.4c0,0,0,0.1,0,0.1l0.2,1.8c0,0.2,0.2,0.5,0.4,0.4l1.7-0.2
			c0.2,0,0.4-0.2,0.4-0.5c0,0,0-0.1,0-0.1l0.2-2.2c0-0.2-0.2-0.4-0.4-0.4c0,0-0.1,0-0.1,0L104.3,106 M109.5,102.8
			c0.5-1,1.1-2,1.7-2.9c0.6,0.4,1.3,0.6,2.1,0.6c1,0,2-0.4,2.7-1.1c1.3,1.3,3.3,1.5,4.8,0.5c0.6,0.9,1.2,1.9,1.6,2.8
			c1.6,3.2,0.6,5.2-2.2,6.2c-0.8,0.3-2.4,0.6-3.1,1.5c-0.6,0.7-0.8,1.6-1.2,1.6s-0.6-0.9-1.2-1.6c-0.7-0.8-2.3-1.2-3.1-1.5
			C108.9,107.9,107.8,106.1,109.5,102.8"/>
		<path d="M121.3,93.5c-0.2,0.1-0.4,0.1-0.7,0.2l0,0c-0.1,0-0.2,0.1-0.3,0.2c-0.1,0.2-0.1,0.5,0.1,0.6l0,0l0.4,0.5
			c0.8,1.2,0.6,2.7-0.5,3.6c-1.1,0.8-2.6,0.6-3.4-0.4c0,0,0-0.1-0.1-0.1c-0.1-0.2-0.2-0.4-0.3-0.6l0,0c-0.1-0.2-0.2-0.2-0.3-0.2
			c-0.2-0.1-0.4,0-0.5,0.2c0,0,0,0,0,0l0,0c-0.1,0.2-0.2,0.4-0.3,0.5c-0.8,1.1-2.3,1.4-3.4,0.6c0,0-0.1,0-0.1-0.1
			c-1.1-0.9-1.3-2.5-0.5-3.6c0.2-0.2,0.3-0.4,0.4-0.5l0,0c0.1-0.1,0.1-0.2,0.2-0.4c0-0.2-0.1-0.4-0.4-0.5l0,0
			c-0.2,0-0.4-0.1-0.6-0.2c-1.3-0.5-2-1.9-1.6-3.2c0.4-1.3,1.8-2.1,3.1-1.7c0.2,0.1,0.4,0.2,0.6,0.3l0,0c0.1,0.1,0.2,0.1,0.4,0.1
			c0.2-0.1,0.4-0.3,0.3-0.5l0,0c-0.1-0.2-0.1-0.4-0.1-0.6c-0.2-1.4,0.8-2.6,2.2-2.8c1.4-0.2,2.6,0.8,2.8,2.2c0,0.2,0,0.4,0,0.6
			c0,0.2,0,0.5-0.1,0.7l0,0c0,0.1,0,0.3,0.1,0.4c0.1,0.2,0.4,0.3,0.6,0.2l0,0c0.2-0.1,0.3-0.2,0.5-0.2c1.2-0.5,2.6,0.2,3.1,1.4
			c0,0.1,0.1,0.2,0.1,0.3C123.3,91.7,122.6,93,121.3,93.5"/>
		<path class="st2" d="M118.2,92.5c0-1.1-0.9-1.9-2-1.9c-1.1,0-1.9,0.9-1.9,2c0,1,0.9,1.9,1.9,1.9c1.1,0,1.9-0.8,1.9-1.9
			C118.2,92.5,118.2,92.5,118.2,92.5"/>
		<path class="st2" d="M136,133.2c-4.7,1.3-9.5,1.9-14.3,1.8c-4.4,0.1-8.7-0.4-13-1.5c-2.3-0.6-4.6-1.4-6.8-2.3
			c-3.4-1.5-6.8-2.8-10.3-3.9c-5-1.4-10.2-2-15.3-1.9c-4.7-0.1-9.4,0.4-14,1.5c-2.5,0.6-5,1.5-7.3,2.5c-3.2,1.5-6.5,2.8-9.9,3.9
			c-4.7,1.3-9.5,1.8-14.4,1.7c-4.4,0.1-8.7-0.4-13-1.5c-2.2-0.6-4.3-1.3-6.4-2.2c0.7,1.8,1.6,3.5,2.4,5.2c0.6,0.1,1.2,0.4,1.8,0.5
			c5,1.4,10.2,2,15.3,1.9c4.7,0.1,9.4-0.4,14-1.5c2.5-0.6,5-1.5,7.3-2.5c3.2-1.5,6.5-2.7,9.9-3.8c4.7-1.3,9.5-1.9,14.3-1.8
			c4.4-0.1,8.7,0.4,13,1.5c2.3,0.6,4.6,1.4,6.8,2.3c3.4,1.5,6.8,2.8,10.3,3.9c5,1.4,10.2,2,15.3,1.9c4.7,0.1,9.4-0.4,14-1.5
			c1.1-0.3,2.1-0.6,3.1-0.9c0.8-1.8,1.6-3.5,2.4-5.2C139.4,132,137.8,132.6,136,133.2z"/>
		<path class="st2" d="M121.7,126.8c-4.4,0.1-8.7-0.4-13-1.5c-2.3-0.6-4.6-1.4-6.8-2.3c-3.4-1.5-6.8-2.8-10.3-3.9
			c-5-1.4-10.2-2-15.3-1.9c-4.7-0.1-9.4,0.4-14,1.5c-2.5,0.6-5,1.5-7.3,2.5c-3.2,1.5-6.5,2.7-9.9,3.7c-4.7,1.3-9.5,1.9-14.3,1.8
			c-4.4,0.1-8.7-0.4-13-1.5c-2.3-0.6-4.6-1.4-6.9-2.3c-1.1-0.5-2.2-0.9-3.4-1.5c0.6,1.7,1.3,3.5,1.9,5.2c2,0.8,4,1.6,6,2.2
			c5,1.4,10.2,2,15.3,1.9c4.7,0.1,9.4-0.4,14-1.5c2.5-0.6,5-1.5,7.4-2.5c3.2-1.5,6.5-2.7,9.8-3.8c4.7-1.3,9.5-1.9,14.3-1.8
			c4.4-0.1,8.7,0.4,13,1.5c2.3,0.6,4.6,1.4,6.9,2.3c3.4,1.5,6.8,2.8,10.3,3.9c5,1.4,10.2,2,15.3,1.9c4.7,0.1,9.4-0.4,14-1.5
			c2.5-0.7,4.9-1.5,7.3-2.5c0.7-1.8,1.3-3.5,1.9-5.2c-2.9,1.3-5.9,2.5-9,3.4C131.3,126.3,126.5,126.9,121.7,126.8z"/>
		<path class="st2" d="M6.1,117.6c3,1.4,6.1,2.5,9.2,3.5c5,1.4,10.2,2,15.4,1.9c4.7,0.1,9.4-0.4,14-1.5c2.5-0.6,5-1.5,7.4-2.5
			c3.2-1.5,6.5-2.7,9.9-3.8c4.7-1.3,9.5-1.9,14.3-1.8c4.4-0.1,8.7,0.4,13,1.5c2.3,0.6,4.6,1.4,6.8,2.3c3.4,1.5,6.8,2.8,10.3,3.9
			c5,1.4,10.2,2,15.3,1.9c4.7,0.1,9.4-0.4,14-1.5c2.5-0.6,5-1.5,7.3-2.5c1.1-0.5,2.1-0.9,3.2-1.3c0.5-1.7,1-3.3,1.4-5l-1.8,0.7
			c-3.2,1.5-6.5,2.7-9.9,3.8c-4.7,1.3-9.5,1.9-14.3,1.8c-4.4,0.1-8.7-0.4-13-1.5c-2.3-0.6-4.6-1.4-6.8-2.3
			c-3.4-1.5-6.8-2.8-10.3-3.9c-5-1.4-10.2-2-15.3-1.9c-4.7-0.1-9.4,0.4-14,1.5c-2.5,0.6-5,1.5-7.3,2.5c-3.2,1.5-6.5,2.7-9.9,3.8
			c-4.7,1.3-9.5,1.9-14.3,1.8c-4.4,0.1-8.7-0.4-13-1.5c-2.3-0.6-4.6-1.4-6.8-2.3c-2-0.8-3.9-1.7-6.2-2.5
			C5,114.2,5.5,115.9,6.1,117.6z"/>
		<rect y="64.8" class="st2" width="152.2" height="2.1"/>
	</g>
</g>
</svg>
