<?xml version="1.0" encoding="utf-8"?>
<!-- Generator: Adobe Illustrator 26.1.0, SVG Export Plug-In . SVG Version: 6.00 Build 0)  -->
<svg version="1.1" id="Layer_1_xA0_Image_00000021803049495794707650000007020025996477056409_"
	 xmlns="http://www.w3.org/2000/svg" xmlns:xlink="http://www.w3.org/1999/xlink" x="0px" y="0px" viewBox="0 0 327 315"
	 style="enable-background:new 0 0 327 315;" xml:space="preserve">
<style type="text/css">
	.st0{fill:#B0B0B0;}
	.st1{fill:#292929;}
	.st2{fill:#161616;}
	.st3{fill:#F4F4F4;}
	.st4{fill:#353535;}
	.st5{fill:#FEFEFE;}
</style>
<g>
	<path class="st0" d="M274.94,10.1c9.74,0,19.49,0.09,29.23-0.07c2.28-0.04,2.88,0.37,2.82,2.77c-0.2,8.09-0.08,16.18-0.08,24.27
		c-1.01,0.34-1,1.21-0.98,2.02c0.22,9.24-0.86,18.36-1.85,27.54c-1.54,14.3-3.43,28.55-6.43,42.55
		c-4.38,20.44-10.15,40.57-17.07,60.29c-8.01,22.83-19.55,44.01-32.51,64.41c0.55,1.94,2.17,1.1,3.29,1.1
		c12.19,0.04,24.39-0.02,36.58-0.06c1.13,0.93,1.34,2.2,1.34,3.56c0.03,13.03,0.05,26.05,0.12,39.08c0.01,2.43-0.48,4.56-2.42,6.18
		c-25.41,0.05-50.81,0.26-76.22,0.07c-7.91-0.06-15.2,0.38-21.67,5.87c-2.44,2.07-6.1,2.98-9.17,4.42
		c-5.24,2.45-11.07,3.48-15.92,6.76c-2.66,0-5.33,0-7.99,0c-3.56-1.34-7.22-2.48-10.67-4.06c-7.63-3.51-15.78-6.21-21.48-12.93
		c9.44-0.05,18.88-0.18,28.32-0.11c7.62,0.06,8.46-0.99,8.32-8.48c-0.25-13.41-0.57-26.83,0.19-40.23c13.12-0.1,26.23-0.2,39.35-0.3
		c6.31,0.01,12.63,0.02,18.94,0.03c0.33,0,0.66,0.01,0.99,0.01c0.58,0,1.17,0,1.75,0c3.12,1.65,4.61-0.77,6.19-2.6
		c10.78-12.48,20.57-25.75,28.22-40.34c27.37-52.17,39.61-108.44,44.21-166.69c0.43-5.49-0.79-6.46-6.09-6.47
		c-3.63-0.01-7.27-0.3-10.9-0.34c-42.4-0.44-84.31,3.89-125.92,12.1C122.54,37.36,88.5,46.95,55.28,59.53
		c-8.4,3.18-16.77,6.48-25.01,10.06c-7.16,3.11-8.48,5.4-7.14,11.66c6.8,31.84,16.37,62.74,30.4,92.23
		c10.51,22.09,24.21,42.08,39.12,61.33c-3.1,0.14-6.21,0.51-9.29,0.36c-3.46-0.17-7.26,1.49-10.32-1.51
		c-7.39-10.93-13.19-22.71-18.99-34.55c-10.85-22.18-18.76-45.37-24.82-69.21c-2.68-10.56-5.53-21.08-7.41-31.88
		c-0.87-4.99-0.7-10.79-4.72-14.98c0-1.33,0-2.66,0-4c1.48-0.61,1.21-2,1.01-2.99c-0.92-4.43,1.76-6.15,5.2-7.58
		c6.47-2.68,12.89-5.47,19.31-8.26c22.71-9.88,46.24-17.4,70.03-24.12c18.29-5.17,36.75-9.69,55.49-12.94
		c12.35-2.15,24.69-4.38,37.1-6.25c11.47-1.73,22.99-3.31,34.48-4.44c9.96-0.98,20.08-1.99,30.21-1.41
		C271.56,11.14,273.59,12.03,274.94,10.1z M274.33,272.21c0.36-5.42,0.76-10.83-0.07-16.24c0.32-3.51,0.24-7.2,5.46-7.07
		c1.73,0.04,1.08-1.69,1.18-2.73c0.16-1.67-0.67-2.37-2.34-2.36c-4.8,0.04-9.61,0.06-14.41,0c-2.11-0.03-3.04,1.08-3.19,2.97
		c-0.17,2.06,1.34,2.59,2.91,2.49c4.21-0.25,4.35,2.31,4.25,5.48c-0.17,5.63-0.07,11.26-0.09,16.89c-0.01,1.89-0.03,3.89,2.55,3.97
		C272.78,275.67,274.6,275,274.33,272.21z M239.03,258.94c-0.01,0-0.03,0-0.04,0c0,4.31-0.07,8.63,0.03,12.94
		c0.05,2.3,1.35,3.76,3.73,3.83c2.6,0.07,2.15-1.95,2.2-3.55c0.06-1.99,0.04-3.98,0.15-5.97c0.07-1.35-0.71-3.26,1.66-3.42
		c1.69-0.11,2.04,1.17,2.47,2.55c0.64,2.04,1.62,3.98,2.42,5.98c1.15,2.88,3.04,5.47,6.27,3.89c3.08-1.51,0.28-4.05-0.4-5.87
		c-1.33-3.59-3.18-6.74-0.41-10.7c4.39-6.3,0.94-13.61-6.71-14.67c-2.45-0.34-4.97-0.13-7.46-0.29c-2.8-0.18-3.94,1.18-3.91,3.84
		C239.06,251.31,239.03,255.12,239.03,258.94z M214.13,259.44c0.03,0,0.05,0,0.08,0c0,2.66-0.26,5.35,0.05,7.98
		c0.68,5.78,3.83,8.34,9.81,8.39c6.04,0.05,9.21-2.35,10.11-8.05c0.78-4.94,0.73-9.96,0.22-14.92c-0.68-6.61-4.34-9.84-10.43-9.56
		c-6.33,0.28-9.49,3.53-9.82,10.18C214.05,255.45,214.13,257.45,214.13,259.44z M177.17,243.52c-2.22,0.48-5.37-0.35-7.36,2.88
		c-3.18,5.16-2.55,9.29,2.48,12.91c2.56,1.84,5.34,3.37,7.81,5.31c1.62,1.27,1.94,3.19,0.43,4.83c-1.64,1.77-3.52,1.69-5.23-0.01
		c-0.58-0.58-1.01-1.31-1.49-1.98c-1.48-2.06-3.39-1.16-4.9-0.35c-1.99,1.07-0.63,2.61,0.09,3.81c2.02,3.36,4.57,6.66,8.87,5.85
		c4.18-0.78,8.34-2.56,9.65-7.42c1.21-4.5-0.97-7.76-4.33-10.33c-2.37-1.81-5.03-3.23-7.44-5c-1.62-1.18-1.67-2.84-0.4-4.35
		c1.17-1.39,2.65-1.23,4.02-0.3c0.67,0.46,1.15,1.18,1.73,1.77c1.82,1.85,3.7,1.36,5.24-0.23c1.64-1.7,0.13-3.02-1-4.23
		C183.28,244.5,180.78,243.36,177.17,243.52z M190.81,259.27c0,3.98,0,7.96,0,11.94c0,2.46,0.85,4.37,3.64,4.29
		c2.8-0.08,2.09-2.45,2.25-4.13c0.08-0.82-0.03-1.66-0.11-2.48c-0.37-4.02,1.23-6.17,5.46-6.61c6.22-0.65,8.61-3.43,8.55-9.27
		c-0.06-5.4-3.3-8.66-9.13-9.06c-2.15-0.15-4.31-0.05-6.47-0.19c-2.97-0.19-4.28,1.13-4.22,4.08
		C190.86,251.64,190.8,255.46,190.81,259.27z"/>
	<path class="st1" d="M200.03,234.77c-13.12,0.1-26.23,0.2-39.35,0.3c-16.21-0.04-32.41-0.07-48.62-0.11
		c0.4-2.53-0.74-4.61-2.27-6.37c-4.94-5.66-8.63-12.19-12.87-18.33c-10.32-14.94-19.62-30.63-26.11-47.47
		C60.97,137.27,53.56,110.9,48.26,84c-0.72-3.65-1.49-7.28,2.66-9.04c-0.52-2.51-5.72,1.55-3.91-3.45c0.32-0.89,1.44-1.8,0.53-2.57
		c-1.39-1.19-1.84,0.61-2.66,1.24c-2.22,1.7-4.51,3.61-6.03-0.71c2.3-2.6,5.77-2.33,8.64-3.54c44.94-18.85,91.88-30.24,139.92-37.46
		c23.72-3.56,47.52-6.26,71.56-6.25c-1.42,12.34-2.58,24.71-4.33,37c-1.97,13.94-4.22,27.84-6.84,41.67
		c-1.24,6.54-1.32,13.54-5.5,19.29c-0.48-1.58-0.99-3.15-1.45-4.74c-3.22-11.34-7.89-21.93-16.4-30.38
		c-6.15-6.11-12.65-6.75-19.81-2.27c-1.06,0.66-1.99,1.96-3.45,0.72c3.67-9.13,0.61-17.37-8.83-21.85
		c-20.24-9.59-40.86-9.7-61.35-0.91c-7.88,3.38-13.01,9.23-11.84,18.73c0.13,1.06,0.27,2.26-0.57,3.21
		c-11.18-5.16-15.17-4.98-21.46,1.95c-15.94,17.57-22.36,38.19-18.92,61.71c1.06,7.27,5.18,12.09,12.58,13.73
		c0.93,0.21,1.98,0.23,2.52,1.24c-7.1,6.58-8.7,11.01-4.9,17.23c13.2,21.53,32.1,35.13,57.15,39.69c5.29,0.96,9.41-1.04,12.37-5.56
		c0.67-1.03,0.74-2.62,2.32-2.96c6.15,9,9.84,10.36,20.64,7.8c13.62-3.23,24.82-10.95,35.81-19.09c-2.62,6.84-5.57,13.53-8.78,20.12
		C205.32,223.97,200.22,228.18,200.03,234.77z"/>
	<path class="st2" d="M200.03,234.77c0.19-6.59,5.29-10.8,7.91-16.2c3.21-6.59,6.16-13.28,8.78-20.12
		c3.7-4.02,7.57-7.89,11.04-12.09c3.29-3.99,5.86-8.47,6.01-13.88c0.13-4.57-3.17-7.29-6.17-10.22
		c11.72-4.69,14.65-8.01,16.13-19.36c0.99-7.61-0.14-15.19-1.44-22.71c4.18-5.75,4.26-12.75,5.5-19.29
		c2.62-13.83,4.87-27.74,6.84-41.67c1.74-12.29,2.91-24.66,4.33-37c12.21-1.93,24.51-0.89,36.77-1.05c2.86-0.04,2.07,2.51,1.9,4.19
		c-3.11,30.77-7.08,61.36-15.58,91.25c-12.34,43.42-29.22,84.42-60.33,118.21c-0.58,0-1.17,0-1.75,0c-0.33-0.45-0.66-0.46-0.99-0.01
		C212.66,234.79,206.34,234.78,200.03,234.77z"/>
	<path class="st2" d="M112.06,234.96c16.21,0.04,32.41,0.07,48.62,0.11c-0.75,13.41-0.43,26.83-0.18,40.23
		c0.14,7.49-0.7,8.54-8.32,8.48c-9.44-0.07-18.88,0.06-28.32,0.11c-25.78,0-51.56-0.09-77.33,0.11c-3.87,0.03-4.59-1.08-4.53-4.68
		c0.22-13.8,0.2-27.61,0.01-41.41c-0.05-3.31,0.9-4.12,4.12-4.07c8.97,0.14,17.94-0.1,26.92-0.2c3.06,3,6.85,1.34,10.32,1.51
		c3.08,0.15,6.19-0.22,9.29-0.36c1.51,0.28,3.01,0.88,4.56,0.16C102.15,234.96,107.11,234.96,112.06,234.96z M131.62,271.85
		c-0.66-1.63-0.35-3.26-0.03-4.9c0.57-2.88,1.69-6.09,4.58-6.51c2.38-0.34,2.79,3.16,3.97,5.03c0.62,0.98,1.13,2.02,1.67,3.05
		c1.5,2.86,3.34,5.34,7.84,7.11c-3.16-5.99-5.38-10.8-8.15-15.26c-2.02-3.25-1.9-5.67,0.77-8.36c2.12-2.14,4.45-4.31,4.96-7.91
		c-3.03,0.79-4.67,2.69-6.32,4.48c-1.79,1.95-3.35,4.12-5.1,6.11c-0.94,1.07-1.71,2.88-3.45,2.4c-2.02-0.56-0.86-2.51-0.99-3.81
		c-0.2-2.14-0.05-4.31-0.06-6.47c-0.01-1.35,0.05-2.88-1.84-2.89c-1.97-0.01-1.72,1.51-1.72,2.87c0,8.63,0.04,17.26-0.08,25.89
		c-0.04,3.18,1.36,3.35,3.72,2.25C133.39,274.05,133.44,273.02,131.62,271.85z M100.05,259.91c0,4.48,0,8.96,0,13.44
		c0,1.1,0.36,2.11,1.49,2.23c1.42,0.16,2.08-0.87,2.1-2.19c0.03-2.65,0.13-5.32-0.08-7.96c-0.25-3.21,1.37-4.08,4.17-3.99
		c2.46,0.08,3.95,1.24,4.86,3.51c1.24,3.07,2.61,6.09,4.05,9.07c0.61,1.27,1.8,2.15,3.27,1.56c2.18-0.88,0.44-2.28,0.08-3.26
		c-0.98-2.63-2.17-5.2-3.4-7.73c-1.18-2.43-1.16-4.38,1.43-5.92c3.01-1.79,3.52-4.66,2.93-7.81c-0.64-3.43-2.75-5.5-6.17-6.39
		c-4.1-1.06-8.26-0.46-12.38-0.55c-2.45-0.06-2.35,1.88-2.36,3.54C100.02,251.61,100.04,255.76,100.05,259.91z M69.72,261.65
		c0.06,0.86,0.02,2.72,0.33,4.5c0.94,5.37,4.99,9.12,10.47,9.89c5.49,0.77,10.3-1.74,12.48-6.97c2.69-6.44,2.64-12.99-0.45-19.32
		c-2.31-4.74-6.25-6.5-11.47-6.1c-5.12,0.39-8.26,3.03-9.94,7.7C70.06,254.38,69.83,257.52,69.72,261.65z M56.49,256.95
		c-4.07-3.72-5.53-9.66-10.88-12.15c4.41,9.25,10.35,17.84,8.88,28.78c-0.18,1.37,0.97,2.23,2.25,1.97
		c1.75-0.36,1.54-1.93,1.36-3.24c-0.97-6.97,1.55-13.02,4.82-18.92c1.72-3.11,3.95-6.01,4.9-10.04
		C60.71,245.46,60.41,252.62,56.49,256.95z"/>
	<path class="st3" d="M97.2,234.96c-1.55,0.72-3.05,0.12-4.56-0.16c-14.9-19.25-28.61-39.24-39.12-61.33
		c-14.03-29.48-23.6-60.39-30.4-92.23c-1.34-6.26-0.02-8.55,7.14-11.66c8.24-3.58,16.61-6.88,25.01-10.06
		c33.22-12.57,67.25-22.17,102.14-29.05c41.62-8.2,83.52-12.54,125.92-12.1c3.64,0.04,7.27,0.34,10.9,0.34
		c5.3,0.01,6.52,0.98,6.09,6.47c-4.6,58.24-16.84,114.51-44.21,166.69c-7.65,14.59-17.44,27.86-28.22,40.34
		c-1.58,1.83-3.07,4.25-6.19,2.6c31.11-33.79,47.99-74.79,60.33-118.21c8.5-29.89,12.46-60.48,15.58-91.25
		c0.17-1.69,0.97-4.23-1.9-4.19c-12.26,0.16-24.56-0.88-36.77,1.05c-24.04-0.01-47.84,2.68-71.56,6.25
		c-48.05,7.22-94.99,18.61-139.92,37.46c-2.87,1.2-6.34,0.94-8.64,3.54c-13.86,3.87-14.48,4.65-11.75,16.36
		c10.29,44.17,25.66,86.24,51.01,124.26C83.92,218.82,91.09,226.47,97.2,234.96z"/>
	<path class="st1" d="M239.03,258.94c0-3.82,0.02-7.63-0.01-11.45c-0.02-2.67,1.11-4.02,3.91-3.84c2.48,0.16,5.01-0.05,7.46,0.29
		c7.64,1.06,11.1,8.37,6.71,14.67c-2.76,3.96-0.92,7.11,0.41,10.7c0.68,1.82,3.48,4.36,0.4,5.87c-3.23,1.58-5.12-1.01-6.27-3.89
		c-0.8-2-1.78-3.93-2.42-5.98c-0.43-1.37-0.78-2.66-2.47-2.55c-2.37,0.16-1.59,2.08-1.66,3.42c-0.11,1.99-0.08,3.98-0.15,5.97
		c-0.05,1.6,0.39,3.63-2.2,3.55c-2.38-0.07-3.68-1.53-3.73-3.83c-0.1-4.31-0.03-8.63-0.03-12.94
		C239.01,258.94,239.02,258.94,239.03,258.94z M245.06,253.27c-0.05,2.25-0.05,4.48,3.13,4.43c3.04-0.05,4.58-1.68,4.5-4.66
		c-0.08-2.8-1.72-4.08-4.48-4.14C244.98,248.83,245.01,251.03,245.06,253.27z"/>
	<path class="st1" d="M214.13,259.44c0-2-0.09-4,0.02-5.99c0.34-6.65,3.5-9.9,9.82-10.18c6.09-0.27,9.75,2.95,10.43,9.56
		c0.51,4.96,0.57,9.98-0.22,14.92c-0.9,5.7-4.07,8.11-10.11,8.05c-5.98-0.05-9.12-2.61-9.81-8.39c-0.31-2.62-0.05-5.32-0.05-7.98
		C214.19,259.44,214.16,259.44,214.13,259.44z M228.05,260.08c0.03,0,0.05,0,0.08,0c0-2.65,0.08-5.31-0.02-7.96
		c-0.09-2.22-1.56-3.18-3.63-3.3c-2.08-0.11-3.69,0.74-4.03,2.87c-0.85,5.28-0.74,10.59,0.11,15.85c0.35,2.14,1.95,3.1,3.99,2.93
		c2.27-0.19,3.61-1.44,3.53-3.93C227.99,264.39,228.05,262.23,228.05,260.08z"/>
	<path class="st1" d="M177.17,243.52c3.61-0.16,6.11,0.98,8.14,3.16c1.13,1.21,2.64,2.53,1,4.23c-1.53,1.59-3.41,2.07-5.24,0.23
		c-0.58-0.59-1.07-1.31-1.73-1.77c-1.37-0.94-2.85-1.1-4.02,0.3c-1.27,1.51-1.22,3.17,0.4,4.35c2.41,1.76,5.07,3.18,7.44,5
		c3.36,2.57,5.55,5.83,4.33,10.33c-1.31,4.86-5.46,6.64-9.65,7.42c-4.3,0.81-6.85-2.49-8.87-5.85c-0.72-1.2-2.08-2.74-0.09-3.81
		c1.51-0.81,3.41-1.71,4.9,0.35c0.48,0.67,0.91,1.4,1.49,1.98c1.71,1.7,3.59,1.78,5.23,0.01c1.52-1.64,1.19-3.57-0.43-4.83
		c-2.47-1.94-5.26-3.47-7.81-5.31c-5.03-3.62-5.66-7.75-2.48-12.91C171.8,243.17,174.95,244,177.17,243.52z"/>
	<path class="st2" d="M190.81,259.27c0-3.81,0.05-7.63-0.02-11.44c-0.05-2.95,1.26-4.27,4.22-4.08c2.15,0.14,4.32,0.04,6.47,0.19
		c5.83,0.4,9.08,3.67,9.13,9.06c0.06,5.84-2.33,8.62-8.55,9.27c-4.23,0.44-5.83,2.59-5.46,6.61c0.08,0.82,0.19,1.66,0.11,2.48
		c-0.16,1.69,0.55,4.05-2.25,4.13c-2.79,0.08-3.64-1.83-3.64-4.29C190.81,267.23,190.81,263.25,190.81,259.27z M200.15,248.83
		c-2.66-0.41-3.74,1.07-3.54,3.7c0.16,2.1-0.96,5,2.71,5.23c2.97,0.18,5.29-0.84,5.5-4.21C205.01,250.53,203.3,249.04,200.15,248.83
		z"/>
	<path class="st1" d="M274.33,272.21c0.27,2.79-1.55,3.46-3.73,3.39c-2.58-0.08-2.56-2.08-2.55-3.97
		c0.02-5.63-0.08-11.27,0.09-16.89c0.09-3.16-0.04-5.72-4.25-5.48c-1.57,0.09-3.08-0.43-2.91-2.49c0.15-1.89,1.08-3,3.19-2.97
		c4.8,0.06,9.61,0.04,14.41,0c1.67-0.01,2.49,0.69,2.34,2.36c-0.1,1.04,0.55,2.77-1.18,2.73c-5.22-0.13-5.14,3.56-5.46,7.07
		C271.94,261.39,272.19,266.8,274.33,272.21z"/>
	<path class="st2" d="M274.33,272.21c-2.14-5.41-2.39-10.82-0.07-16.24C275.09,261.38,274.69,266.79,274.33,272.21z"/>
	<path class="st1" d="M218.97,234.8c0.34-0.44,0.67-0.44,0.99,0.01C219.63,234.81,219.3,234.8,218.97,234.8z"/>
	<path class="st3" d="M242.3,120.18c1.3,7.52,2.43,15.11,1.44,22.71c-1.48,11.35-4.41,14.67-16.13,19.36
		c2.99,2.93,6.29,5.65,6.17,10.22c-0.15,5.41-2.71,9.89-6.01,13.88c-3.47,4.2-7.35,8.07-11.04,12.09
		c-10.99,8.14-22.2,15.86-35.81,19.09c-10.79,2.56-14.48,1.2-20.64-7.8c-1.58,0.33-1.65,1.93-2.32,2.96
		c-2.96,4.52-7.08,6.52-12.37,5.56c-25.05-4.56-43.95-18.16-57.15-39.69c-3.81-6.21-2.21-10.65,4.9-17.23
		c-0.54-1.01-1.6-1.04-2.52-1.24c-7.41-1.64-11.52-6.46-12.58-13.73c-3.44-23.52,2.98-44.14,18.92-61.71
		c6.29-6.93,10.28-7.12,21.46-1.95c0.84-0.95,0.7-2.16,0.57-3.21c-1.17-9.5,3.96-15.35,11.84-18.73
		c20.49-8.79,41.11-8.68,61.35,0.91c9.44,4.47,12.5,12.72,8.83,21.85c1.46,1.24,2.39-0.06,3.45-0.72
		c7.16-4.48,13.66-3.85,19.81,2.27c8.51,8.45,13.18,19.04,16.4,30.38C241.31,117.03,241.82,118.6,242.3,120.18z M195.11,93.1
		c0.79-4.59,1.84-8.79,2.17-13.04c0.46-5.87-3.95-11.02-9.05-10.1c-6.42,1.16-12.96,0.12-19.38,2.17
		c-7.1,2.27-14.49,1.42-21.58-1.13c-3.14-1.13-6.3-2.07-9.7-2.12c-8.85-0.12-13.9,5.45-12.82,14.34c0.34,2.78,0.92,5.52,1.46,8.66
		c-4.4-1.64-7.9-4.32-12.18-5.18c-6.52-1.31-10.57,0.75-13.02,6.96c-1.3,3.28-1.77,6.74-2.03,10.24
		c-0.74,9.95-2.68,19.41-9.63,27.23c-1.71,1.92-2.74,4.56-3.7,7.02c-3.07,7.87-0.5,13,7.73,14.92c4.3,1.01,8.78,1.23,13.55,1.86
		c-3.75,3.57-7.19,6.87-10.66,10.15c-3.63,3.44-3.31,11.16,1.16,14.59c3.11,2.38,6.54,3.92,10.15,5.22
		c9.33,3.36,17.17,8.64,22.63,17.14c1.63,2.53,3.85,4.58,6.36,6.27c7.07,4.77,13.7,3.63,18.61-3.32c1.69-2.38,3.11-4.95,4.88-7.8
		c1.54,2.75,2.68,5.1,4.11,7.26c5.22,7.87,11.86,9.03,19.54,3.42c3.65-2.67,6.68-6,9.51-9.5c4.95-6.11,11.14-10.4,18.7-12.69
		c3.51-1.06,6.86-2.51,9.89-4.64c7.11-5,7.67-10.29,1.72-16.55c-2.8-2.94-5.57-5.91-8.59-9.12c2.54-0.14,4.99-0.09,7.38-0.45
		c2.62-0.4,5.26-0.95,7.74-1.84c6.13-2.2,7.87-5.77,6.17-12.09c-0.92-3.41-2.4-6.58-4.49-9.41c-6.06-8.2-8.77-17.41-8.8-27.55
		c-0.01-2.63-0.48-5.31-1.12-7.87c-1.94-7.74-6.83-10.41-14.66-8.43C202.95,88.79,199.42,91.34,195.11,93.1z"/>
	<path class="st4" d="M97.2,234.96c-6.11-8.49-13.28-16.14-19.1-24.88c-25.34-38.02-40.72-80.09-51.01-124.26
		c-2.73-11.71-2.1-12.49,11.75-16.36c1.53,4.32,3.81,2.41,6.03,0.71c0.82-0.63,1.27-2.42,2.66-1.24c0.91,0.78-0.21,1.68-0.53,2.57
		c-1.8,5,3.4,0.94,3.91,3.45c-4.15,1.76-3.38,5.38-2.66,9.04c5.3,26.9,12.71,53.27,22.55,78.79c6.5,16.84,15.79,32.54,26.11,47.47
		c4.24,6.14,7.93,12.67,12.87,18.33c1.53,1.76,2.67,3.84,2.27,6.37C107.11,234.96,102.15,234.96,97.2,234.96z"/>
	<path class="st3" d="M100.05,259.91c-0.01-4.15-0.03-8.3,0-12.44c0.01-1.66-0.1-3.6,2.36-3.54c4.13,0.09,8.28-0.51,12.38,0.55
		c3.42,0.88,5.52,2.96,6.17,6.39c0.59,3.15,0.08,6.03-2.93,7.81c-2.59,1.54-2.61,3.49-1.43,5.92c1.23,2.53,2.42,5.1,3.4,7.73
		c0.36,0.98,2.1,2.37-0.08,3.26c-1.47,0.6-2.66-0.29-3.27-1.56c-1.44-2.98-2.81-6-4.05-9.07c-0.92-2.27-2.41-3.43-4.86-3.51
		c-2.81-0.09-4.43,0.79-4.17,3.99c0.21,2.64,0.11,5.3,0.08,7.96c-0.02,1.32-0.68,2.34-2.1,2.19c-1.13-0.12-1.5-1.13-1.49-2.23
		C100.06,268.87,100.05,264.39,100.05,259.91z M103.71,252.37c-0.21,3.22-0.3,6.27,4.62,5.95c6.28-0.41,9.08-2.19,8.82-6.24
		c-0.23-3.6-3.3-5.22-9.22-5.19C104.09,246.91,102.94,248.77,103.71,252.37z"/>
	<path class="st3" d="M69.72,261.65c0.11-4.13,0.35-7.28,1.43-10.29c1.68-4.68,4.81-7.31,9.94-7.7c5.22-0.4,9.17,1.36,11.47,6.1
		c3.08,6.33,3.14,12.88,0.45,19.32c-2.19,5.23-7,7.73-12.48,6.97c-5.48-0.76-9.53-4.52-10.47-9.89
		C69.74,264.37,69.77,262.52,69.72,261.65z M73.95,255.88c-0.13,0.69-0.27,1.39-0.4,2.08c-0.42,1.64-0.47,3.27,0.06,4.9
		c0.13,0.69,0.25,1.38,0.38,2.07c1.4,5.51,4.18,8.17,8.56,7.76c5.19-0.48,7.29-3.91,7.64-8.75c0.92-3.02,1.01-6.05-0.01-9.07
		c-1.32-5.88-3.71-8.21-8.3-8.07C77.21,246.95,74.93,249.57,73.95,255.88z"/>
	<path class="st3" d="M131.4,274.94c-2.36,1.1-3.76,0.93-3.72-2.25c0.12-8.63,0.08-17.26,0.08-25.89c0-1.35-0.24-2.88,1.72-2.87
		c1.9,0.01,1.84,1.53,1.84,2.89c0.01,2.16-0.14,4.33,0.06,6.47c0.12,1.3-1.03,3.24,0.99,3.81c1.74,0.49,2.51-1.33,3.45-2.4
		c1.75-1.99,3.31-4.16,5.1-6.11c1.65-1.79,3.29-3.69,6.32-4.48c-0.51,3.61-2.84,5.77-4.96,7.91c-2.66,2.69-2.79,5.12-0.77,8.36
		c2.77,4.46,4.99,9.27,8.15,15.26c-4.5-1.77-6.34-4.25-7.84-7.11c-0.54-1.03-1.06-2.07-1.67-3.05c-1.18-1.87-1.59-5.37-3.97-5.03
		c-2.89,0.41-4.01,3.62-4.58,6.51c-0.32,1.63-0.63,3.27,0.03,4.9C131.54,272.88,131.47,273.91,131.4,274.94z"/>
	<path class="st3" d="M56.49,256.95c3.92-4.32,4.22-11.48,11.33-13.61c-0.95,4.03-3.17,6.93-4.9,10.04
		c-3.27,5.91-5.79,11.95-4.82,18.92c0.18,1.31,0.39,2.89-1.36,3.24c-1.28,0.26-2.43-0.6-2.25-1.97c1.47-10.93-4.47-19.53-8.88-28.78
		C50.95,247.29,52.42,253.22,56.49,256.95z"/>
	<path class="st1" d="M131.4,274.94c0.07-1.03,0.15-2.06,0.22-3.09C133.44,273.02,133.39,274.05,131.4,274.94z"/>
	<path class="st0" d="M245.06,253.28c-0.05-2.25-0.08-4.45,3.15-4.38c2.76,0.06,4.41,1.35,4.48,4.14c0.08,2.98-1.46,4.61-4.5,4.66
		C245,257.76,245.01,255.53,245.06,253.28z"/>
	<path class="st0" d="M228.05,260.08c0,2.16-0.06,4.32,0.02,6.47c0.09,2.49-1.26,3.74-3.53,3.93c-2.03,0.17-3.64-0.79-3.99-2.93
		c-0.85-5.27-0.96-10.58-0.11-15.85c0.34-2.13,1.95-2.99,4.03-2.87c2.07,0.11,3.54,1.07,3.63,3.3c0.11,2.65,0.02,5.3,0.02,7.96
		C228.1,260.08,228.08,260.08,228.05,260.08z"/>
	<path class="st0" d="M200.15,248.83c3.16,0.22,4.87,1.71,4.68,4.73c-0.21,3.37-2.53,4.39-5.5,4.21c-3.67-0.22-2.55-3.13-2.71-5.23
		C196.41,249.89,197.49,248.41,200.15,248.83z"/>
	<path class="st4" d="M195.11,93.1c4.31-1.76,7.84-4.31,12.06-5.38c7.83-1.98,12.72,0.69,14.66,8.43c0.64,2.56,1.11,5.24,1.12,7.87
		c0.04,10.14,2.74,19.34,8.8,27.55c2.09,2.82,3.58,5.99,4.49,9.41c1.7,6.32-0.04,9.9-6.17,12.09c-2.48,0.89-5.12,1.44-7.74,1.84
		c-2.39,0.36-4.84,0.31-7.38,0.45c3.02,3.21,5.8,6.18,8.59,9.12c5.95,6.26,5.4,11.55-1.72,16.55c-3.03,2.13-6.38,3.58-9.89,4.64
		c-7.56,2.29-13.75,6.57-18.7,12.69c-2.84,3.5-5.86,6.83-9.51,9.5c-7.67,5.61-14.32,4.45-19.54-3.42c-1.43-2.16-2.57-4.51-4.11-7.26
		c-1.77,2.85-3.19,5.42-4.88,7.8c-4.91,6.95-11.55,8.08-18.61,3.32c-2.52-1.7-4.73-3.74-6.36-6.27c-5.46-8.5-13.3-13.78-22.63-17.14
		c-3.6-1.3-7.04-2.84-10.15-5.22c-4.47-3.43-4.79-11.15-1.16-14.59c3.46-3.28,6.91-6.58,10.66-10.15
		c-4.77-0.63-9.25-0.85-13.55-1.86c-8.23-1.93-10.8-7.06-7.73-14.92c0.96-2.46,1.99-5.1,3.7-7.02c6.95-7.82,8.9-17.28,9.63-27.23
		c0.26-3.5,0.74-6.96,2.03-10.24c2.45-6.2,6.49-8.26,13.02-6.96c4.29,0.86,7.78,3.54,12.18,5.18c-0.54-3.14-1.12-5.88-1.46-8.66
		c-1.08-8.88,3.97-14.46,12.82-14.34c3.39,0.05,6.56,0.99,9.7,2.12c7.08,2.55,14.48,3.4,21.58,1.13c6.43-2.05,12.96-1.01,19.38-2.17
		c5.09-0.92,9.51,4.23,9.05,10.1C196.95,84.31,195.9,88.51,195.11,93.1z M161.27,95.32c-0.88-1.12-1.49-1.89-2.09-2.66
		c-6.51-8.27-10.84-8.56-18.28-0.98c-7.04,7.18-14.46,13.59-24.23,17.05c-6.2,2.2-7.21,7.82-2.94,12.79
		c1.58,1.85,3.46,3.44,5.46,5.41c-2.02,0.36-3.64,0.67-5.28,0.93c-9.56,1.55-12,6.68-7.07,15.17c2.43,4.19,4.6,8.48,6,13.12
		c1.45,4.8,1.89,9.77,2.59,14.71c0.89,6.3,5.01,8.91,11.04,7.39c2.32-0.59,4.57-1.5,7.12-2.35c-0.18,1.88-0.37,3.33-0.46,4.8
		c-0.41,7.11,2.24,10.03,9.42,10.49c2.18,0.14,4.32,0.11,6.42-0.56c7.01-2.24,14.07-2.11,21.2-0.59c14.58,3.1,16.29,1.83,17.6-13.19
		c1.28,0.42,2.5,0.83,3.72,1.22c8.38,2.65,13.2,0.23,14.12-8.59c1.03-9.86,3.57-18.87,9.39-26.91c0.47-0.66,0.71-1.5,0.99-2.28
		c1.96-5.38,0.63-8.52-4.75-10.67c-2.53-1.01-5.23-1.63-8.98-2.77c1.66-1.2,2.72-1.76,3.51-2.57c6.99-7.21,6.05-12.92-3.12-16.96
		c-8.54-3.76-15.83-8.93-21.81-16.16c-5.09-6.16-11.36-5.93-16.55,0.08C163.34,92.35,162.53,93.61,161.27,95.32z"/>
	<path class="st2" d="M103.71,252.37c-0.77-3.6,0.38-5.46,4.21-5.48c5.92-0.03,8.99,1.59,9.22,5.19c0.26,4.05-2.54,5.83-8.82,6.24
		C103.41,258.64,103.5,255.59,103.71,252.37z"/>
	<path class="st2" d="M90.19,263.95c-0.35,4.84-2.45,8.27-7.64,8.75c-4.39,0.41-7.16-2.25-8.56-7.76c1.1-0.92,0.86-1.59-0.38-2.07
		c-0.53-1.63-0.49-3.26-0.06-4.9c1.32-0.46,1.54-1.14,0.4-2.08c0.98-6.31,3.26-8.93,7.93-9.07c4.59-0.14,6.99,2.19,8.3,8.07
		C88.69,257.9,88.67,260.93,90.19,263.95z"/>
	<path class="st4" d="M90.19,263.95c-1.52-3.02-1.5-6.04-0.01-9.07C91.2,257.9,91.11,260.92,90.19,263.95z"/>
	<path class="st1" d="M73.95,255.88c1.13,0.94,0.92,1.62-0.4,2.08C73.68,257.27,73.82,256.58,73.95,255.88z"/>
	<path class="st1" d="M73.61,262.86c1.24,0.49,1.48,1.16,0.38,2.07C73.86,264.25,73.74,263.55,73.61,262.86z"/>
	<path class="st5" d="M161.27,95.32c1.26-1.71,2.07-2.97,3.04-4.1c5.19-6.01,11.46-6.24,16.55-0.08
		c5.98,7.24,13.27,12.4,21.81,16.16c9.17,4.04,10.11,9.75,3.12,16.96c-0.79,0.81-1.85,1.37-3.51,2.57c3.76,1.14,6.45,1.75,8.98,2.77
		c5.38,2.15,6.71,5.29,4.75,10.67c-0.28,0.78-0.52,1.62-0.99,2.28c-5.81,8.04-8.36,17.05-9.39,26.91
		c-0.92,8.81-5.74,11.23-14.12,8.59c-1.23-0.39-2.45-0.8-3.72-1.22c-1.31,15.02-3.03,16.29-17.6,13.19
		c-7.13-1.52-14.19-1.64-21.2,0.59c-2.1,0.67-4.25,0.7-6.42,0.56c-7.18-0.46-9.83-3.38-9.42-10.49c0.08-1.46,0.27-2.92,0.46-4.8
		c-2.55,0.85-4.79,1.76-7.12,2.35c-6.03,1.53-10.15-1.08-11.04-7.39c-0.7-4.94-1.14-9.91-2.59-14.71c-1.41-4.64-3.57-8.93-6-13.12
		c-4.93-8.49-2.49-13.62,7.07-15.17c1.63-0.26,3.26-0.58,5.28-0.93c-2.01-1.97-3.88-3.56-5.46-5.41
		c-4.27-4.98-3.27-10.59,2.94-12.79c9.77-3.47,17.19-9.87,24.23-17.05c7.43-7.58,11.77-7.28,18.28,0.98
		C159.78,93.43,160.39,94.2,161.27,95.32z M160.16,156.07c8.34,0.11,16.6-7.51,16.73-15.43c0.16-9.42-6.68-16.32-16.31-16.46
		c-8.83-0.13-16.25,7.08-16.46,16C143.93,148.43,151.53,155.96,160.16,156.07z M154.62,163.23c-5.6-2.61-10.44-5.38-13.96-10.28
		c-2.66,4.44-3.85,8.85-4.17,13.48c-0.37,5.5,1.25,6.71,6.28,4.82C147.16,169.6,151.05,167.19,154.62,163.23z M167.15,163.21
		c3.5,4.42,7.95,6.92,12.85,8.64c2.89,1.01,4.91,0.33,4.9-3.3c-0.01-5.17-0.93-10.08-3.7-15.36
		C177.42,158.27,172.49,160.94,167.15,163.21z M180.65,125.21c1.44,3.01,2.95,5.57,3.66,8.52c2.03,8.4,2.73,8.56,9.48,2.41
		c1.47-1.34,2.97-2.71,4.14-4.29c1.98-2.68,1.13-4.91-1.97-5.68C191.14,124.96,186.24,123.9,180.65,125.21z M141.71,124.91
		c-5.89-1.21-11.19-0.46-16.37,1.43c-2.02,0.73-2.19,2.38-1.1,4.05c2.89,4.44,6.47,8.08,11.89,10.31
		C137.17,134.99,138.54,129.9,141.71,124.91z M169.75,116.11c-0.83-5.29-2.67-9.78-5.87-13.72c-1.55-1.91-3.06-2.33-4.84-0.24
		c-2.83,3.35-4.71,7.18-5.88,11.36c-0.37,1.32-0.36,3.14,1.62,2.62C159.71,114.84,164.61,116.23,169.75,116.11z"/>
	<path class="st0" d="M160.16,156.07c-8.63-0.11-16.24-7.64-16.04-15.89c0.21-8.92,7.63-16.13,16.46-16
		c9.64,0.14,16.47,7.04,16.31,16.46C176.76,148.56,168.5,156.18,160.16,156.07z"/>
	<path class="st4" d="M154.62,163.23c-3.57,3.97-7.46,6.37-11.84,8.02c-5.04,1.89-6.66,0.68-6.28-4.82
		c0.31-4.63,1.51-9.04,4.17-13.48C144.18,157.84,149.03,160.61,154.62,163.23z"/>
	<path class="st4" d="M167.15,163.21c5.34-2.28,10.26-4.94,14.05-10.02c2.77,5.28,3.69,10.2,3.7,15.36c0.01,3.63-2.02,4.31-4.9,3.3
		C175.1,170.13,170.66,167.64,167.15,163.21z"/>
	<path class="st4" d="M180.65,125.21c5.59-1.31,10.49-0.25,15.31,0.95c3.1,0.77,3.95,3,1.97,5.68c-1.17,1.58-2.67,2.95-4.14,4.29
		c-6.75,6.15-7.45,6-9.48-2.41C183.6,130.78,182.09,128.22,180.65,125.21z"/>
	<path class="st4" d="M141.71,124.91c-3.17,4.99-4.54,10.08-5.58,15.79c-5.41-2.23-9-5.87-11.89-10.31
		c-1.09-1.67-0.92-3.32,1.1-4.05C130.52,124.45,135.82,123.7,141.71,124.91z"/>
	<path class="st4" d="M169.75,116.11c-5.14,0.12-10.04-1.28-14.97,0.02c-1.97,0.52-1.99-1.3-1.62-2.62
		c1.17-4.18,3.05-8.02,5.88-11.36c1.78-2.1,3.29-1.67,4.84,0.24C167.08,106.33,168.91,110.83,169.75,116.11z"/>
</g>
</svg>
